advent_pro_thn_it.ufo
<glyph name="ampersand" format="1">
  <advance width="527"/>
  <unicode hex="0026"/>
  <outline>
    <contour>
      <point x="538" y="682" type="line"/>
      <point x="380" y="682" type="line" smooth="yes"/>
      <point x="300.532" y="682"/>
      <point x="241.871" y="635.087"/>
      <point x="229" y="562" type="curve" smooth="yes"/>
      <point x="212.06" y="465.807"/>
      <point x="303.521" y="403"/>
      <point x="359" y="403" type="curve" smooth="yes"/>
      <point x="463.66" y="403" type="line"/>
      <point x="485.341" y="505" type="line"/>
      <point x="504.341" y="505" type="line"/>
      <point x="482.66" y="403" type="line"/>
      <point x="581.66" y="403" type="line"/>
      <point x="571" y="383" type="line"/>
      <point x="478.197" y="383" type="line"/>
      <point x="425.908" y="136" type="line" smooth="yes"/>
      <point x="410.604" y="62.8702"/>
      <point x="428.823" y="22.1548"/>
      <point x="491" y="7" type="curve"/>
      <point x="484.087" y="-9" type="line"/>
      <point x="422.721" y="9.66667"/>
      <point x="400.53" y="46.3333"/>
      <point x="405" y="105" type="curve"/>
      <point x="365.691" y="32.9904"/>
      <point x="284.938" y="-0.0039711"/>
      <point x="222.15" y="-4" type="curve" smooth="yes"/>
      <point x="148.664" y="-9.35902"/>
      <point x="29.8828" y="4.15321"/>
      <point x="63.2216" y="161" type="curve" smooth="yes"/>
      <point x="82.9894" y="254" type="line" smooth="yes"/>
      <point x="96.5707" y="317.895"/>
      <point x="133.437" y="403"/>
      <point x="268.66" y="403" type="curve" smooth="yes"/>
      <point x="295" y="403" type="line"/>
      <point x="227" y="434"/>
      <point x="200.276" y="503.957"/>
      <point x="208.544" y="561" type="curve" smooth="yes"/>
      <point x="222.283" y="646.391"/>
      <point x="289.192" y="702"/>
      <point x="382.215" y="702" type="curve" smooth="yes"/>
      <point x="551.215" y="702" type="line"/>
    </contour>
    <contour>
      <point x="459.197" y="383" type="line"/>
      <point x="262.197" y="383" type="line" smooth="yes"/>
      <point x="160.065" y="383"/>
      <point x="117.44" y="326.689"/>
      <point x="101.352" y="251" type="curve" smooth="yes"/>
      <point x="81.7965" y="159" type="line" smooth="yes"/>
      <point x="57.9901" y="47"/>
      <point x="118.729" y="5"/>
      <point x="225.763" y="13" type="curve" smooth="yes"/>
      <point x="325.255" y="21.1467"/>
      <point x="397.784" y="90.8319"/>
      <point x="414.772" y="173" type="curve" smooth="yes"/>
    </contour>
  </outline>
</glyph>
<glyph name="parenleft" format="1">
  <advance width="169"/>
  <unicode hex="0028"/>
  <outline>
    <contour>
      <point x="322.62" y="798" type="line"/>
      <point x="258.417" y="758.185"/>
      <point x="214.979" y="729.12"/>
      <point x="194.973" y="635" type="curve" smooth="yes"/>
      <point x="126.69" y="313.75"/>
      <point x="93" y="155.25"/>
      <point x="73.8168" y="65" type="curve" smooth="yes"/>
      <point x="49.5165" y="-49.3237"/>
      <point x="108.48" y="-80.3087"/>
      <point x="132.532" y="-101" type="curve"/>
      <point x="117.706" y="-119" type="line"/>
      <point x="55.0564" y="-70.3377"/>
      <point x="34.5314" y="-30.4349"/>
      <point x="55.667" y="69" type="curve" smooth="yes"/>
      <point x="173.848" y="625" type="line" smooth="yes"/>
      <point x="194.609" y="722.67"/>
      <point x="233.482" y="766.691"/>
      <point x="315.809" y="813" type="curve"/>
    </contour>
  </outline>
</glyph>
<glyph name="asterisk" format="1">
  <advance width="336"/>
  <unicode hex="002A"/>
  <outline>
    <contour>
      <point x="159.085" y="612" type="line"/>
      <point x="274.244" y="561" type="line"/>
      <point x="302.364" y="698" type="line"/>
      <point x="324.364" y="698" type="line"/>
      <point x="294.244" y="561" type="line"/>
      <point x="435.085" y="612" type="line"/>
      <point x="437.834" y="592" type="line"/>
      <point x="298.056" y="546" type="line"/>
      <point x="357.525" y="440" type="line"/>
      <point x="338.762" y="427" type="line"/>
      <point x="279.93" y="536" type="line"/>
      <point x="179.762" y="427" type="line"/>
      <point x="164.525" y="440" type="line"/>
      <point x="266.056" y="546" type="line"/>
      <point x="147.834" y="592" type="line"/>
    </contour>
  </outline>
</glyph>
<glyph name="plus" format="1">
  <advance width="376"/>
  <unicode hex="002B"/>
  <outline>
    <contour>
      <point x="308.23" y="528" type="line"/>
      <point x="276.346" y="378" type="line"/>
      <point x="426.346" y="378" type="line"/>
      <point x="422.733" y="361" type="line"/>
      <point x="272.733" y="361" type="line"/>
      <point x="240.424" y="209" type="line"/>
      <point x="221.424" y="209" type="line"/>
      <point x="253.733" y="361" type="line"/>
      <point x="103.733" y="361" type="line"/>
      <point x="107.346" y="378" type="line"/>
      <point x="257.346" y="378" type="line"/>
      <point x="289.23" y="528" type="line"/>
    </contour>
  </outline>
</glyph>
<glyph name="one" format="1">
  <advance width="204"/>
  <unicode hex="0031"/>
  <outline>
    <contour>
      <point x="136.809" y="606" type="line"/>
      <point x="189.853" y="619.508"/>
      <point x="257.03" y="658.206"/>
      <point x="289.364" y="698" type="curve"/>
      <point x="309.364" y="698" type="line"/>
      <point x="161" y="0" type="line"/>
      <point x="141" y="0" type="line"/>
      <point x="282.138" y="664" type="line"/>
      <point x="246.723" y="630.888"/>
      <point x="191.141" y="602.042"/>
      <point x="138.408" y="590" type="curve"/>
    </contour>
  </outline>
</glyph>
<glyph name="five" format="1">
  <advance width="439"/>
  <unicode hex="0035"/>
  <outline>
    <contour>
      <point x="168.361" y="411" type="line"/>
      <point x="258.267" y="411" type="line"/>
      <point x="421.374" y="411"/>
      <point x="478.653" y="318.285"/>
      <point x="453.086" y="198" type="curve" smooth="yes"/>
      <point x="427.037" y="75.4458"/>
      <point x="312.931" y="-12"/>
      <point x="198.449" y="-12" type="curve"/>
      <point x="103.668" y="-13.5556"/>
      <point x="36.807" y="43.5555"/>
      <point x="36.9273" y="42" type="curve"/>
      <point x="48.5408" y="59" type="line"/>
      <point x="47.418" y="61.1667"/>
      <point x="110.623" y="4.83337"/>
      <point x="198" y="7" type="curve"/>
      <point x="293.535" y="7"/>
      <point x="407.857" y="80.007"/>
      <point x="433.787" y="202" type="curve" smooth="yes"/>
      <point x="454.56" y="299.725"/>
      <point x="416.429" y="393"/>
      <point x="258.535" y="393" type="curve" smooth="yes"/>
      <point x="142.535" y="393" type="line"/>
      <point x="239.364" y="698" type="line"/>
      <point x="504.364" y="698" type="line"/>
      <point x="500.113" y="678" type="line"/>
      <point x="253.113" y="678" type="line"/>
    </contour>
  </outline>
</glyph>
<glyph name="six" format="1">
  <advance width="480"/>
  <unicode hex="0036"/>
  <outline>
    <contour>
      <point x="423" y="679" type="line" smooth="yes"/>
      <point x="269" y="679"/>
      <point x="176" y="586"/>
      <point x="150" y="466" type="curve" smooth="yes"/>
      <point x="111" y="288" type="line"/>
      <point x="170" y="377"/>
      <point x="253" y="414"/>
      <point x="329" y="414" type="curve" smooth="yes"/>
      <point x="434" y="414"/>
      <point x="503" y="342"/>
      <point x="503" y="245" type="curve" smooth="yes"/>
      <point x="503" y="112"/>
      <point x="373" y="-10"/>
      <point x="240" y="-10" type="curve" smooth="yes"/>
      <point x="116" y="-10"/>
      <point x="50" y="88"/>
      <point x="73" y="202" type="curve" smooth="yes"/>
      <point x="128" y="462" type="line" smooth="yes"/>
      <point x="159" y="608"/>
      <point x="272" y="697"/>
      <point x="422" y="697" type="curve" smooth="yes"/>
      <point x="456" y="697" type="line"/>
      <point x="452" y="679" type="line"/>
    </contour>
    <contour>
      <point x="327" y="395" type="curve" smooth="yes"/>
      <point x="217" y="395"/>
      <point x="110" y="302"/>
      <point x="91" y="195" type="curve" smooth="yes"/>
      <point x="73" y="95"/>
      <point x="138" y="9"/>
      <point x="243.913" y="9" type="curve" smooth="yes"/>
      <point x="364" y="9"/>
      <point x="482" y="119"/>
      <point x="482" y="241" type="curve" smooth="yes"/>
      <point x="482" y="329"/>
      <point x="420" y="395"/>
    </contour>
  </outline>
</glyph>
<glyph name="nine" format="1">
  <advance width="479"/>
  <unicode hex="0039"/>
  <outline>
    <contour>
      <point x="384.065" y="706" type="curve" smooth="yes"/>
      <point x="443" y="706"/>
      <point x="489.076" y="685.667"/>
      <point x="521.099" y="645" type="curve" smooth="yes"/>
      <point x="553.647" y="603.667"/>
      <point x="564.615" y="553.333"/>
      <point x="552.003" y="494" type="curve" smooth="yes"/>
      <point x="496.738" y="234" type="line" smooth="yes"/>
      <point x="485.402" y="180.667"/>
      <point x="457.016" y="128.667"/>
      <point x="412.43" y="82" type="curve" smooth="yes"/>
      <point x="367.277" y="32.6667"/>
      <point x="290.787" y="-1"/>
      <point x="202.787" y="-1" type="curve" smooth="yes"/>
      <point x="167.787" y="-1" type="line"/>
      <point x="172.251" y="20" type="line"/>
      <point x="210.251" y="20" type="line" smooth="yes"/>
      <point x="266.251" y="20"/>
      <point x="314.092" y="35.4215"/>
      <point x="362" y="66" type="curve" smooth="yes"/>
      <point x="414.362" y="99.4216"/>
      <point x="460.486" y="161.892"/>
      <point x="479.289" y="246" type="curve" smooth="yes"/>
      <point x="514" y="405" type="line"/>
      <point x="453.225" y="318"/>
      <point x="372.243" y="283"/>
      <point x="295.154" y="283" type="curve" smooth="yes"/>
      <point x="235.154" y="283"/>
      <point x="189.951" y="304"/>
      <point x="157.119" y="344" type="curve" smooth="yes"/>
      <point x="124.572" y="385.333"/>
      <point x="114.533" y="435.333"/>
      <point x="127.003" y="494" type="curve" smooth="yes"/>
      <point x="139.615" y="553.333"/>
      <point x="171.453" y="603.504"/>
      <point x="220.886" y="644" type="curve" smooth="yes"/>
      <point x="271.554" y="685.508"/>
      <point x="326" y="706"/>
    </contour>
    <contour>
      <point x="381" y="687" type="curve" smooth="yes"/>
      <point x="280.974" y="687"/>
      <point x="169.088" y="602.609"/>
      <point x="146.215" y="495" type="curve" smooth="yes"/>
      <point x="123.486" y="388.068"/>
      <point x="187" y="301"/>
      <point x="297.98" y="301" type="curve" smooth="yes"/>
      <point x="404" y="301"/>
      <point x="507.575" y="382"/>
      <point x="532.216" y="495" type="curve" smooth="yes"/>
      <point x="554.941" y="603.013"/>
      <point x="493.974" y="687"/>
    </contour>
  </outline>
</glyph>
<glyph name="semicolon" format="1">
  <advance width="122"/>
  <unicode hex="003B"/>
  <outline>
    <contour>
      <point x="49.4538" y="68" type="line"/>
      <point x="72.0882" y="86.6667"/>
      <point x="81.977" y="109.667"/>
      <point x="86.1445" y="123" type="curve"/>
      <point x="78.4056" y="124.707"/>
      <point x="76.9278" y="133.711"/>
      <point x="79" y="142.355" type="curve" smooth="yes"/>
      <point x="81" y="150"/>
      <point x="88.9751" y="155.504"/>
      <point x="98.1588" y="156" type="curve"/>
      <point x="108.825" y="156"/>
      <point x="113.916" y="147.015"/>
      <point x="111.787" y="136" type="curve" smooth="yes"/>
      <point x="104.063" y="90"/>
      <point x="56.034" y="62.8889"/>
      <point x="56.391" y="63" type="curve"/>
    </contour>
    <contour>
      <point x="164.622" y="384" type="curve" smooth="yes"/>
      <point x="162.638" y="374.667"/>
      <point x="153.008" y="367"/>
      <point x="145.008" y="367" type="curve" smooth="yes"/>
      <point x="132.455" y="367"/>
      <point x="128.904" y="376.621"/>
      <point x="131.856" y="385.473" type="curve" smooth="yes"/>
      <point x="134.372" y="393.016"/>
      <point x="141.609" y="400"/>
      <point x="152.023" y="400" type="curve" smooth="yes"/>
      <point x="160.023" y="400"/>
      <point x="166.606" y="393.333"/>
    </contour>
  </outline>
</glyph>
<glyph name="greater" format="1">
  <advance width="350"/>
  <unicode hex="003E"/>
  <outline>
    <contour>
      <point x="164.213" y="623" type="line"/>
      <point x="178.973" y="635" type="line"/>
      <point x="397.095" y="358" type="line"/>
      <point x="60.792" y="79" type="line"/>
      <point x="49.9803" y="94" type="line"/>
      <point x="372.213" y="360" type="line"/>
    </contour>
  </outline>
</glyph>
<glyph name="question" format="1">
  <advance width="407"/>
  <unicode hex="003F"/>
  <outline>
    <contour>
      <point x="137.655" y="530" type="line"/>
      <point x="164" y="655"/>
      <point x="267" y="709"/>
      <point x="355" y="706" type="curve" smooth="yes"/>
      <point x="451" y="703"/>
      <point x="514" y="638"/>
      <point x="491.93" y="536" type="curve" smooth="yes"/>
      <point x="476.343" y="462.667"/>
      <point x="435.87" y="419.667"/>
      <point x="383.284" y="373" type="curve" smooth="yes"/>
      <point x="284.784" y="287.352"/>
      <point x="256.811" y="271.979"/>
      <point x="240.023" y="193" type="curve" smooth="yes"/>
      <point x="224.294" y="119" type="line"/>
      <point x="206.294" y="119" type="line"/>
      <point x="220.748" y="187" type="line" smooth="yes"/>
      <point x="243.676" y="294.87"/>
      <point x="291.881" y="308.125"/>
      <point x="380.535" y="393" type="curve" smooth="yes"/>
      <point x="443.634" y="452.505"/>
      <point x="462.643" y="485.568"/>
      <point x="474" y="539" type="curve" smooth="yes"/>
      <point x="491.333" y="620.546"/>
      <point x="449.761" y="689"/>
      <point x="347" y="689" type="curve" smooth="yes"/>
      <point x="270.549" y="689"/>
      <point x="179.919" y="639.45"/>
      <point x="156.655" y="530" type="curve"/>
    </contour>
    <contour>
      <point x="197.377" y="30" type="curve" smooth="yes"/>
      <point x="208.229" y="30"/>
      <point x="211.241" y="20.5893"/>
      <point x="208.724" y="11.6699" type="curve" smooth="yes"/>
      <point x="206.456" y="3.63566"/>
      <point x="199.702" y="-4"/>
      <point x="190.15" y="-4" type="curve" smooth="yes"/>
      <point x="178.259" y="-4"/>
      <point x="174.444" y="4.85852"/>
      <point x="176.593" y="13.5322" type="curve" smooth="yes"/>
      <point x="178.655" y="21.8511"/>
      <point x="186.203" y="30"/>
    </contour>
  </outline>
</glyph>
<glyph name="B" format="1">
  <advance width="502"/>
  <unicode hex="0042"/>
  <outline>
    <contour>
      <point x="407" y="698" type="line" smooth="yes"/>
      <point x="516.333" y="698"/>
      <point x="572.772" y="645.047"/>
      <point x="551.355" y="538" type="curve" smooth="yes"/>
      <point x="538.759" y="479"/>
      <point x="490.427" y="420.909"/>
      <point x="434.295" y="402.187" type="curve"/>
      <point x="433.81" y="399" type="line"/>
      <point x="505" y="373"/>
      <point x="537.617" y="304"/>
      <point x="517.212" y="208" type="curve" smooth="yes"/>
      <point x="490.855" y="84"/>
      <point x="409.667" y="0"/>
      <point x="271" y="0" type="curve" smooth="yes"/>
      <point x="40" y="0" type="line"/>
      <point x="188.364" y="698" type="line"/>
    </contour>
    <contour>
      <point x="379" y="411" type="line" smooth="yes"/>
      <point x="447.892" y="411"/>
      <point x="516.631" y="467.868"/>
      <point x="532" y="542" type="curve" smooth="yes"/>
      <point x="549" y="624.001"/>
      <point x="515.666" y="679"/>
      <point x="401" y="679" type="curve" smooth="yes"/>
      <point x="204.326" y="679" type="line"/>
      <point x="147.361" y="411" type="line"/>
    </contour>
    <contour>
      <point x="273.039" y="19" type="line" smooth="yes"/>
      <point x="393.586" y="19"/>
      <point x="470.664" y="90.5067"/>
      <point x="495" y="205" type="curve" smooth="yes"/>
      <point x="519.373" y="319.667"/>
      <point x="470.201" y="393"/>
      <point x="355.535" y="393" type="curve" smooth="yes"/>
      <point x="143.535" y="393" type="line"/>
      <point x="64.0386" y="19" type="line"/>
    </contour>
  </outline>
</glyph>
<glyph name="C" format="1">
  <advance width="420"/>
  <unicode hex="0043"/>
  <outline>
    <contour>
      <point x="501.862" y="658" type="line"/>
      <point x="463" y="680"/>
      <point x="418.785" y="689"/>
      <point x="377.451" y="689" type="curve" smooth="yes"/>
      <point x="261.451" y="689"/>
      <point x="185.352" y="622.667"/>
      <point x="161.829" y="512" type="curve" smooth="yes"/>
      <point x="92.323" y="185" type="line"/>
      <point x="62.531" y="54.2999"/>
      <point x="132.998" y="8"/>
      <point x="238.7" y="8" type="curve" smooth="yes"/>
      <point x="278.281" y="8"/>
      <point x="334.548" y="18.8278"/>
      <point x="397.715" y="41" type="curve"/>
      <point x="399.889" y="23" type="line"/>
      <point x="338.546" y="1"/>
      <point x="282.208" y="-10"/>
      <point x="230.874" y="-10" type="curve" smooth="yes"/>
      <point x="210.874" y="-10"/>
      <point x="161.804" y="-10.3333"/>
      <point x="119.188" y="15" type="curve" smooth="yes"/>
      <point x="74.4733" y="43"/>
      <point x="55.0431" y="99"/>
      <point x="72.8979" y="183" type="curve" smooth="yes"/>
      <point x="142.829" y="512" type="line" smooth="yes"/>
      <point x="174.876" y="662.77"/>
      <point x="278.368" y="708"/>
      <point x="378.49" y="708" type="curve" smooth="yes"/>
      <point x="432.49" y="708"/>
      <point x="477.485" y="697"/>
      <point x="513.476" y="675" type="curve"/>
    </contour>
  </outline>
</glyph>
<glyph name="E" format="1">
  <advance width="402"/>
  <unicode hex="0045"/>
  <outline>
    <contour>
      <point x="39" y="0" type="line"/>
      <point x="187.364" y="698" type="line"/>
      <point x="522.364" y="698" type="line"/>
      <point x="518.326" y="679" type="line"/>
      <point x="204.326" y="679" type="line"/>
      <point x="147.361" y="411" type="line"/>
      <point x="374.361" y="411" type="line"/>
      <point x="366" y="393" type="line"/>
      <point x="143.535" y="393" type="line"/>
      <point x="64.0386" y="19" type="line"/>
      <point x="376.039" y="19" type="line"/>
      <point x="372" y="0" type="line"/>
    </contour>
  </outline>
</glyph>
<glyph name="I" format="1">
  <advance width="162"/>
  <unicode hex="0049"/>
  <outline>
    <contour>
      <point x="159.326" y="679" type="line"/>
      <point x="163.364" y="698" type="line"/>
      <point x="267.364" y="698" type="line"/>
      <point x="119" y="0" type="line"/>
      <point x="101" y="0" type="line"/>
      <point x="244.688" y="676" type="line"/>
    </contour>
  </outline>
</glyph>
<glyph name="M" format="1">
  <advance width="619"/>
  <unicode hex="004D"/>
  <outline>
    <contour>
      <point x="207.364" y="698" type="line"/>
      <point x="313" y="35" type="line"/>
      <point x="704" y="698" type="line"/>
      <point x="724.364" y="698" type="line"/>
      <point x="576" y="0" type="line"/>
      <point x="557" y="0" type="line"/>
      <point x="693" y="642" type="line"/>
      <point x="316" y="0" type="line"/>
      <point x="298" y="0" type="line"/>
      <point x="196.312" y="646" type="line"/>
      <point x="59" y="0" type="line"/>
      <point x="39" y="0" type="line"/>
      <point x="187.364" y="698" type="line"/>
    </contour>
  </outline>
</glyph>
<glyph name="N" format="1">
  <advance width="575"/>
  <unicode hex="004E"/>
  <outline>
    <contour>
      <point x="680.395" y="698" type="line"/>
      <point x="532" y="0" type="line"/>
      <point x="515" y="0" type="line"/>
      <point x="202" y="664" type="line"/>
      <point x="61" y="0" type="line"/>
      <point x="41" y="0" type="line"/>
      <point x="189.395" y="698" type="line"/>
      <point x="207.395" y="698" type="line"/>
      <point x="520" y="36" type="line"/>
      <point x="661.395" y="698" type="line"/>
    </contour>
  </outline>
</glyph>
<glyph name="P" format="1">
  <advance width="502"/>
  <unicode hex="0050"/>
  <outline>
    <contour>
      <point x="428.364" y="698" type="line" smooth="yes"/>
      <point x="554.799" y="698"/>
      <point x="606.003" y="621.026"/>
      <point x="578.578" y="492" type="curve" smooth="yes"/>
      <point x="549.127" y="353.443"/>
      <point x="476.909" y="280"/>
      <point x="342.516" y="280" type="curve" smooth="yes"/>
      <point x="283.633" y="280"/>
      <point x="198.633" y="280"/>
      <point x="119.516" y="280" type="curve"/>
      <point x="60" y="0" type="line"/>
      <point x="41" y="0" type="line"/>
      <point x="189.364" y="698" type="line"/>
    </contour>
    <contour>
      <point x="123.554" y="299" type="line"/>
      <point x="211.054" y="299"/>
      <point x="291.804" y="299"/>
      <point x="345.554" y="299" type="curve" smooth="yes"/>
      <point x="467.124" y="299"/>
      <point x="532.986" y="366.895"/>
      <point x="559.578" y="492" type="curve" smooth="yes"/>
      <point x="584.584" y="609.647"/>
      <point x="540.775" y="678"/>
      <point x="425.113" y="678" type="curve" smooth="yes"/>
      <point x="204.113" y="678" type="line"/>
    </contour>
  </outline>
</glyph>
<glyph name="T" format="1">
  <advance width="408"/>
  <unicode hex="0054"/>
  <outline>
    <contour>
      <point x="354.143" y="678" type="line"/>
      <point x="210" y="0" type="line"/>
      <point x="192" y="0" type="line"/>
      <point x="335.143" y="678" type="line"/>
      <point x="146.143" y="678" type="line"/>
      <point x="150.395" y="698" type="line"/>
      <point x="552.395" y="698" type="line"/>
      <point x="548.143" y="678" type="line"/>
    </contour>
  </outline>
</glyph>
<glyph name="U" format="1">
  <advance width="496"/>
  <unicode hex="0055"/>
  <outline>
    <contour>
      <point x="495.323" y="185" type="line" smooth="yes"/>
      <point x="481.011" y="117.667"/>
      <point x="449.787" y="68"/>
      <point x="401.652" y="36" type="curve" smooth="yes"/>
      <point x="354.992" y="4.66667"/>
      <point x="302.995" y="-11"/>
      <point x="245.662" y="-11" type="curve" smooth="yes"/>
      <point x="187.662" y="-11"/>
      <point x="141.325" y="4.66667"/>
      <point x="106.652" y="36" type="curve" smooth="yes"/>
      <point x="72.7872" y="68"/>
      <point x="63.0108" y="117.667"/>
      <point x="77.323" y="185" type="curve" smooth="yes"/>
      <point x="186.364" y="698" type="line"/>
      <point x="204.364" y="698" type="line"/>
      <point x="95.1104" y="184" type="line" smooth="yes"/>
      <point x="82.6404" y="125.333"/>
      <point x="91.9546" y="81.3333"/>
      <point x="123.053" y="52" type="curve" smooth="yes"/>
      <point x="154.151" y="22.6667"/>
      <point x="196.367" y="8"/>
      <point x="249.7" y="8" type="curve" smooth="yes"/>
      <point x="301.7" y="8"/>
      <point x="350.676" y="22"/>
      <point x="392.628" y="50" type="curve" smooth="yes"/>
      <point x="435.913" y="78"/>
      <point x="463.074" y="122.667"/>
      <point x="476.11" y="184" type="curve" smooth="yes"/>
      <point x="585.364" y="698" type="line"/>
      <point x="604.364" y="698" type="line"/>
    </contour>
  </outline>
</glyph>
<glyph name="W" format="1">
  <advance width="727"/>
  <unicode hex="0057"/>
  <outline>
    <contour>
      <point x="523.902" y="698" type="line"/>
      <point x="523.902" y="35" type="line"/>
      <point x="835.364" y="698" type="line"/>
      <point x="857.364" y="698" type="line"/>
      <point x="529" y="0" type="line"/>
      <point x="504.687" y="0" type="line"/>
      <point x="505" y="655" type="line"/>
      <point x="218" y="0" type="line"/>
      <point x="197" y="0" type="line"/>
      <point x="163.364" y="698" type="line"/>
      <point x="184.364" y="698" type="line"/>
      <point x="215" y="42" type="line"/>
      <point x="500.364" y="698" type="line"/>
    </contour>
  </outline>
</glyph>
<glyph name="Z" format="1">
  <advance width="539"/>
  <unicode hex="005A"/>
  <outline>
    <contour>
      <point x="654.365" y="698" type="line"/>
      <point x="650.326" y="679" type="line"/>
      <point x="54.0386" y="19" type="line"/>
      <point x="516.039" y="19" type="line"/>
      <point x="512" y="0" type="line"/>
      <point x="27" y="0" type="line"/>
      <point x="31.0386" y="19" type="line"/>
      <point x="626.326" y="679" type="line"/>
      <point x="184.326" y="679" type="line"/>
      <point x="187.365" y="698" type="line"/>
    </contour>
  </outline>
</glyph>
<glyph name="bracketright" format="1">
  <advance width="219"/>
  <unicode hex="005D"/>
  <outline>
    <contour>
      <point x="-9.01889" y="-113" type="line"/>
      <point x="-5.40543" y="-96" type="line"/>
      <point x="136.807" y="-95" type="line"/>
      <point x="326.195" y="796" type="line"/>
      <point x="184.62" y="798" type="line"/>
      <point x="188.234" y="815" type="line"/>
      <point x="349.234" y="815" type="line"/>
      <point x="151.981" y="-113" type="line"/>
    </contour>
  </outline>
</glyph>
<glyph name="asciicircum" format="1">
  <advance width="266"/>
  <unicode hex="005E"/>
  <outline>
    <contour>
      <point x="419.582" y="779" type="line"/>
      <point x="401.181" y="763" type="line"/>
      <point x="318.287" y="867" type="line"/>
      <point x="188.181" y="763" type="line"/>
      <point x="176.369" y="778" type="line"/>
      <point x="324.663" y="897" type="line"/>
    </contour>
  </outline>
</glyph>
<glyph name="grave" format="1">
  <advance width="266"/>
  <unicode hex="0060"/>
  <outline>
    <contour>
      <point x="245.529" y="727" type="curve"/>
      <point x="273.297" y="613" type="line"/>
      <point x="252.297" y="613" type="line"/>
      <point x="217.765" y="714" type="line" smooth="yes"/>
      <point x="215.466" y="722"/>
      <point x="217.52" y="731.667"/>
      <point x="226.654" y="737" type="curve" smooth="yes"/>
      <point x="235.504" y="741"/>
      <point x="244.846" y="736.333"/>
    </contour>
  </outline>
</glyph>
<glyph name="a" format="1">
  <advance width="444"/>
  <unicode hex="0061"/>
  <outline>
    <contour>
      <point x="463.332" y="345" type="curve"/>
      <point x="473.251" y="391.667"/>
      <point x="462.754" y="431.667"/>
      <point x="432.138" y="457" type="curve" smooth="yes"/>
      <point x="407.056" y="477"/>
      <point x="371.728" y="488"/>
      <point x="303.728" y="488" type="curve"/>
      <point x="308.766" y="507" type="line"/>
      <point x="374.1" y="507"/>
      <point x="419.402" y="494.712"/>
      <point x="447.902" y="470" type="curve" smooth="yes"/>
      <point x="482.461" y="440.034"/>
      <point x="492.729" y="395.058"/>
      <point x="480.207" y="335" type="curve" smooth="yes"/>
      <point x="409" y="0" type="line"/>
      <point x="412.263" y="0.2222"/>
      <point x="264.71" y="-10"/>
      <point x="226.874" y="-10" type="curve" smooth="yes"/>
      <point x="82.7747" y="-10"/>
      <point x="36.7973" y="49.8339"/>
      <point x="60.7095" y="168" type="curve" smooth="yes"/>
      <point x="78.3516" y="251" type="line" smooth="yes"/>
      <point x="91.1455" y="315.181"/>
      <point x="137.142" y="403"/>
      <point x="271.66" y="403" type="curve" smooth="yes"/>
      <point x="344.994" y="403"/>
      <point x="409.567" y="374.333"/>
    </contour>
    <contour>
      <point x="458.443" y="322" type="line"/>
      <point x="394.899" y="358.691"/>
      <point x="340.039" y="383"/>
      <point x="266.409" y="383" type="curve" smooth="yes"/>
      <point x="163.727" y="383"/>
      <point x="112.154" y="322.967"/>
      <point x="95.9266" y="249" type="curve" smooth="yes"/>
      <point x="77.4342" y="162" type="line" smooth="yes"/>
      <point x="61.2632" y="89.942"/>
      <point x="73.8553" y="8"/>
      <point x="230.7" y="8" type="curve" smooth="yes"/>
      <point x="274.644" y="8"/>
      <point x="396.311" y="18.2222"/>
      <point x="393.826" y="18" type="curve"/>
    </contour>
  </outline>
</glyph>
<glyph name="c" format="1">
  <advance width="377"/>
  <unicode hex="0063"/>
  <outline>
    <contour>
      <point x="437.138" y="457" type="line"/>
      <point x="386.04" y="486.333"/>
      <point x="328.024" y="495.667"/>
      <point x="275.09" y="485" type="curve" smooth="yes"/>
      <point x="231.773" y="475.667"/>
      <point x="191.955" y="453"/>
      <point x="161.636" y="417" type="curve" smooth="yes"/>
      <point x="138.351" y="389"/>
      <point x="122.599" y="355.667"/>
      <point x="113.53" y="313" type="curve" smooth="yes"/>
      <point x="84.1974" y="175" type="line" smooth="yes"/>
      <point x="68.0431" y="99"/>
      <point x="79.8984" y="45"/>
      <point x="145.464" y="21" type="curve" smooth="yes"/>
      <point x="226.7" y="-9.22222"/>
      <point x="351.941" y="25.8889"/>
      <point x="350.314" y="25" type="curve"/>
      <point x="350.063" y="5" type="line"/>
      <point x="279.712" y="-12.3333"/>
      <point x="196.245" y="-17.6667"/>
      <point x="140.213" y="1" type="curve"/>
      <point x="77.0306" y="23.6667"/>
      <point x="44.0835" y="75.6667"/>
      <point x="64.7724" y="173" type="curve" smooth="yes"/>
      <point x="95.5931" y="318" type="line"/>
      <point x="107.612" y="362"/>
      <point x="121.414" y="394"/>
      <point x="145.549" y="426" type="curve"/>
      <point x="181.568" y="470"/>
      <point x="224.811" y="494.667"/>
      <point x="272.129" y="504" type="curve" smooth="yes"/>
      <point x="333.346" y="516"/>
      <point x="396.795" y="504"/>
      <point x="448.177" y="476" type="curve"/>
    </contour>
  </outline>
</glyph>
<glyph name="f" format="1">
  <advance width="246"/>
  <unicode hex="0066"/>
  <outline>
    <contour>
      <point x="365.026" y="687" type="line"/>
      <point x="356.26" y="689.667"/>
      <point x="349.21" y="691"/>
      <point x="339.877" y="691" type="curve"/>
      <point x="278.377" y="692.998"/>
      <point x="199.778" y="662.308"/>
      <point x="175.481" y="548" type="curve" smooth="yes"/>
      <point x="164.853" y="498" type="line"/>
      <point x="314.853" y="498" type="line"/>
      <point x="304.452" y="482" type="line"/>
      <point x="161.452" y="482" type="line"/>
      <point x="59" y="0" type="line"/>
      <point x="39" y="0" type="line"/>
      <point x="155.481" y="548" type="line" smooth="yes"/>
      <point x="181.477" y="670.302"/>
      <point x="268.029" y="708"/>
      <point x="337.49" y="708" type="curve" smooth="yes"/>
      <point x="349.49" y="708"/>
      <point x="362.753" y="707.667"/>
      <point x="372.852" y="705" type="curve"/>
    </contour>
  </outline>
</glyph>
<glyph name="g" format="1">
  <advance width="437"/>
  <unicode hex="0067"/>
  <outline>
    <contour>
      <point x="384.394" y="-64" type="line" smooth="yes"/>
      <point x="367.386" y="-144"/>
      <point x="326.456" y="-186"/>
      <point x="245.354" y="-210" type="curve"/>
      <point x="242.968" y="-193" type="line"/>
      <point x="277.347" y="-179.239"/>
      <point x="343.266" y="-163.375"/>
      <point x="364.606" y="-63" type="curve" smooth="yes"/>
      <point x="395.008" y="80" type="line"/>
      <point x="360.917" y="22.405"/>
      <point x="260.343" y="-12"/>
      <point x="200.449" y="-12" type="curve" smooth="yes"/>
      <point x="89.7821" y="-12"/>
      <point x="40.4095" y="53.6667"/>
      <point x="66.205" y="175" type="curve" smooth="yes"/>
      <point x="102.134" y="344" type="line" smooth="yes"/>
      <point x="124.812" y="450.667"/>
      <point x="203.801" y="513.333"/>
      <point x="312.001" y="508" type="curve" smooth="yes"/>
      <point x="359.052" y="506.022"/>
      <point x="431.961" y="489"/>
      <point x="473.883" y="451" type="curve"/>
      <point x="483.875" y="498" type="line"/>
      <point x="503.875" y="498" type="line"/>
    </contour>
    <contour>
      <point x="468.568" y="426" type="line"/>
      <point x="436.103" y="469.756"/>
      <point x="349.387" y="491"/>
      <point x="291.749" y="488" type="curve" smooth="yes"/>
      <point x="220.111" y="485"/>
      <point x="144.839" y="450.796"/>
      <point x="122.56" y="346" type="curve" smooth="yes"/>
      <point x="84.7168" y="168" type="line" smooth="yes"/>
      <point x="63.1733" y="66.6667"/>
      <point x="105.764" y="13"/>
      <point x="189.701" y="8" type="curve" smooth="yes"/>
      <point x="274.638" y="3"/>
      <point x="391.545" y="51.1667"/>
      <point x="409.252" y="147" type="curve"/>
    </contour>
  </outline>
</glyph>
<glyph name="l" format="1">
  <advance width="104"/>
  <unicode hex="006C"/>
  <outline>
    <contour>
      <point x="41" y="0" type="line"/>
      <point x="189.395" y="698" type="line"/>
      <point x="209.395" y="698" type="line"/>
      <point x="61" y="0" type="line"/>
    </contour>
  </outline>
</glyph>
<glyph name="m" format="1">
  <advance width="715"/>
  <unicode hex="006D"/>
  <outline>
    <contour>
      <point x="735.119" y="344" type="line" smooth="yes"/>
      <point x="759.135" y="456.985"/>
      <point x="716.18" y="499.993"/>
      <point x="606.578" y="492" type="curve"/>
      <point x="549.444" y="486.667"/>
      <point x="489.555" y="463.667"/>
      <point x="444.737" y="441" type="curve"/>
      <point x="450.303" y="417"/>
      <point x="451.976" y="385.667"/>
      <point x="442.907" y="343" type="curve" smooth="yes"/>
      <point x="370" y="0" type="line"/>
      <point x="350" y="0" type="line"/>
      <point x="423.119" y="344" type="line" smooth="yes"/>
      <point x="447.135" y="456.985"/>
      <point x="403.61" y="500.025"/>
      <point x="295.578" y="492" type="curve" smooth="yes"/>
      <point x="234.444" y="486.667"/>
      <point x="194.164" y="469.667"/>
      <point x="152.863" y="451" type="curve"/>
      <point x="57" y="0" type="line"/>
      <point x="38" y="0" type="line"/>
      <point x="143.853" y="498" type="line"/>
      <point x="162.853" y="498" type="line"/>
      <point x="156.902" y="470" type="line"/>
      <point x="190.969" y="486"/>
      <point x="242.249" y="503"/>
      <point x="293.766" y="507" type="curve" smooth="yes"/>
      <point x="346.071" y="511.563"/>
      <point x="414.486" y="510.048"/>
      <point x="438.501" y="454" type="curve"/>
      <point x="482.488" y="480.458"/>
      <point x="554.458" y="504.258"/>
      <point x="605.766" y="507" type="curve"/>
      <point x="692.224" y="514.947"/>
      <point x="785.041" y="498.882"/>
      <point x="751.907" y="343" type="curve" smooth="yes"/>
      <point x="679" y="0" type="line"/>
      <point x="662" y="0" type="line"/>
    </contour>
  </outline>
</glyph>
<glyph name="n" format="1">
  <advance width="442"/>
  <unicode hex="006E"/>
  <outline>
    <contour>
      <point x="461.347" y="345" type="line" smooth="yes"/>
      <point x="485.609" y="459.121"/>
      <point x="429.991" y="498.995"/>
      <point x="320.812" y="493" type="curve" smooth="yes"/>
      <point x="262.912" y="490.333"/>
      <point x="194.397" y="470.667"/>
      <point x="153.095" y="452" type="curve"/>
      <point x="57" y="0" type="line"/>
      <point x="38" y="0" type="line"/>
      <point x="144.087" y="499" type="line"/>
      <point x="163.087" y="499" type="line"/>
      <point x="157.135" y="471" type="line"/>
      <point x="204.435" y="490.755"/>
      <point x="263.246" y="505.577"/>
      <point x="311.001" y="508" type="curve" smooth="yes"/>
      <point x="398.632" y="513.243"/>
      <point x="512.642" y="501.61"/>
      <point x="479.134" y="344" type="curve" smooth="yes"/>
      <point x="406" y="0" type="line"/>
      <point x="388" y="0" type="line"/>
    </contour>
  </outline>
</glyph>
<glyph name="p" format="1">
  <advance width="439"/>
  <unicode hex="0070"/>
  <outline>
    <contour>
      <point x="445.197" y="175" type="line" smooth="yes"/>
      <point x="419.407" y="53.6667"/>
      <point x="338.667" y="-12"/>
      <point x="228" y="-12" type="curve" smooth="yes"/>
      <point x="167.842" y="-12"/>
      <point x="87.5896" y="22.4303"/>
      <point x="76.0045" y="80" type="curve"/>
      <point x="13.938" y="-212" type="line"/>
      <point x="-4.78667" y="-206" type="line"/>
      <point x="144.853" y="498" type="line"/>
      <point x="164.853" y="498" type="line"/>
      <point x="154.863" y="451" type="line"/>
      <point x="214" y="485"/>
      <point x="284.236" y="506.395"/>
      <point x="341.979" y="508" type="curve" smooth="yes"/>
      <point x="451.009" y="511.759"/>
      <point x="503.792" y="450.667"/>
      <point x="481.119" y="344" type="curve" smooth="yes"/>
    </contour>
    <contour>
      <point x="462.545" y="346" type="line" smooth="yes"/>
      <point x="484.676" y="450.119"/>
      <point x="427.165" y="488.765"/>
      <point x="355" y="491" type="curve" smooth="yes"/>
      <point x="300.67" y="492.682"/>
      <point x="202" y="465"/>
      <point x="149.549" y="426" type="curve"/>
      <point x="90.2458" y="147" type="line"/>
      <point x="67.0018" y="50.5833"/>
      <point x="157.235" y="-1.05282"/>
      <point x="244" y="4" type="curve" smooth="yes"/>
      <point x="331.813" y="9.11388"/>
      <point x="403.17" y="66.6667"/>
      <point x="424.709" y="168" type="curve" smooth="yes"/>
    </contour>
  </outline>
</glyph>
<glyph name="q" format="1">
  <advance width="436"/>
  <unicode hex="0071"/>
  <outline>
    <contour>
      <point x="394" y="75" type="line"/>
      <point x="345" y="13"/>
      <point x="262.11" y="-11"/>
      <point x="200.662" y="-11" type="curve" smooth="yes"/>
      <point x="89.9952" y="-11"/>
      <point x="40.6197" y="54.6667"/>
      <point x="66.4099" y="176" type="curve" smooth="yes"/>
      <point x="102.332" y="345" type="line" smooth="yes"/>
      <point x="124.721" y="450.333"/>
      <point x="201" y="509"/>
      <point x="312.191" y="509" type="curve" smooth="yes"/>
      <point x="374" y="509"/>
      <point x="432.261" y="485.709"/>
      <point x="473.863" y="448" type="curve"/>
      <point x="483.853" y="498" type="line"/>
      <point x="502.853" y="498" type="line"/>
      <point x="352.151" y="-211" type="line"/>
      <point x="334" y="-207" type="line"/>
    </contour>
    <contour>
      <point x="468.762" y="427" type="line"/>
      <point x="444.045" y="458.389"/>
      <point x="381" y="494.924"/>
      <point x="303" y="493" type="curve" smooth="yes"/>
      <point x="224" y="490.974"/>
      <point x="145.083" y="452.036"/>
      <point x="122.969" y="348" type="curve" smooth="yes"/>
      <point x="84.9214" y="169" type="line" smooth="yes"/>
      <point x="63.3823" y="67.6667"/>
      <point x="101" y="7"/>
      <point x="201" y="7" type="curve" smooth="yes"/>
      <point x="280" y="7"/>
      <point x="388.646" y="50.087"/>
      <point x="409.458" y="148" type="curve" smooth="yes"/>
    </contour>
  </outline>
</glyph>
<glyph name="r" format="1">
  <advance width="330"/>
  <unicode hex="0072"/>
  <outline>
    <contour>
      <point x="413.33" y="491.372" type="line"/>
      <point x="399.931" y="494.38"/>
      <point x="383.096" y="495.383"/>
      <point x="368.054" y="495.383" type="curve" smooth="yes"/>
      <point x="317.914" y="495.383"/>
      <point x="257.92" y="477.333"/>
      <point x="149.262" y="433.21" type="curve"/>
      <point x="57.1596" y="0" type="line"/>
      <point x="38.1064" y="0" type="line"/>
      <point x="144.493" y="500.397" type="line"/>
      <point x="163.546" y="500.397" type="line"/>
      <point x="153.739" y="454.268" type="line"/>
      <point x="244.434" y="489.366"/>
      <point x="316.951" y="514.436"/>
      <point x="374.111" y="514.436" type="curve" smooth="yes"/>
      <point x="390.156" y="514.436"/>
      <point x="405.561" y="511.428"/>
      <point x="417.744" y="507.417" type="curve"/>
    </contour>
  </outline>
</glyph>
<glyph name="s" format="1">
  <advance width="405"/>
  <unicode hex="0073"/>
  <outline>
    <contour>
      <point x="420.796" y="460" type="line"/>
      <point x="420.429" y="458.667"/>
      <point x="381.689" y="492"/>
      <point x="312.599" y="492" type="curve" smooth="yes"/>
      <point x="254.599" y="492"/>
      <point x="172.646" y="464"/>
      <point x="154" y="396" type="curve" smooth="yes"/>
      <point x="144.676" y="361.363"/>
      <point x="153.755" y="333.591"/>
      <point x="181" y="313" type="curve" smooth="yes"/>
      <point x="203.162" y="296.25"/>
      <point x="233.298" y="283.44"/>
      <point x="277.552" y="266" type="curve" smooth="yes"/>
      <point x="344.024" y="240"/>
      <point x="424.583" y="205"/>
      <point x="401.024" y="113" type="curve" smooth="yes"/>
      <point x="393.564" y="83.6618"/>
      <point x="373.619" y="51.6614"/>
      <point x="340.528" y="26" type="curve" smooth="yes"/>
      <point x="306.519" y="-0.3733"/>
      <point x="260.144" y="-16"/>
      <point x="198.811" y="-16" type="curve" smooth="yes"/>
      <point x="158.811" y="-16"/>
      <point x="129.549" y="-8.61674"/>
      <point x="105.85" y="4" type="curve" smooth="yes"/>
      <point x="74.4402" y="20.7226"/>
      <point x="53.0211" y="44"/>
      <point x="39.4568" y="68" type="curve"/>
      <point x="55.2206" y="81" type="line"/>
      <point x="83.9528" y="28"/>
      <point x="135.638" y="3"/>
      <point x="201" y="3" type="curve" smooth="yes"/>
      <point x="273.638" y="3"/>
      <point x="356.803" y="32"/>
      <point x="380.236" y="114" type="curve" smooth="yes"/>
      <point x="388.684" y="143.372"/>
      <point x="388.081" y="168.867"/>
      <point x="365.244" y="194" type="curve" smooth="yes"/>
      <point x="348.101" y="212.868"/>
      <point x="316.169" y="230.686"/>
      <point x="267.937" y="249" type="curve" smooth="yes"/>
      <point x="231.914" y="263"/>
      <point x="190.89" y="277"/>
      <point x="161.78" y="300" type="curve" smooth="yes"/>
      <point x="135.105" y="321.777"/>
      <point x="121.881" y="354.361"/>
      <point x="132.977" y="397" type="curve" smooth="yes"/>
      <point x="143.743" y="438.372"/>
      <point x="172.384" y="464.333"/>
      <point x="205.686" y="483" type="curve" smooth="yes"/>
      <point x="240.321" y="501.667"/>
      <point x="281.759" y="510"/>
      <point x="316.426" y="510" type="curve" smooth="yes"/>
      <point x="390.455" y="510"/>
      <point x="433.956" y="475.037"/>
      <point x="434.772" y="474" type="curve"/>
    </contour>
  </outline>
</glyph>
<glyph name="w" format="1">
  <advance width="668"/>
  <unicode hex="0077"/>
  <outline>
    <contour>
      <point x="441.853" y="498" type="line"/>
      <point x="478.652" y="36" type="line"/>
      <point x="730.853" y="498" type="line"/>
      <point x="750.853" y="498" type="line"/>
      <point x="478" y="0" type="line"/>
      <point x="465" y="0" type="line"/>
      <point x="426.288" y="453" type="line"/>
      <point x="198" y="0" type="line"/>
      <point x="186" y="0" type="line"/>
      <point x="123.853" y="498" type="line"/>
      <point x="143.853" y="498" type="line"/>
      <point x="198.652" y="36" type="line"/>
      <point x="430.853" y="498" type="line"/>
    </contour>
  </outline>
</glyph>
<glyph name="braceleft" format="1">
  <advance width="235"/>
  <unicode hex="007B"/>
  <outline>
    <contour>
      <point x="233.467" y="515" type="line" smooth="yes"/>
      <point x="227.515" y="487"/>
      <point x="218.134" y="459.333"/>
      <point x="205.324" y="432" type="curve" smooth="yes"/>
      <point x="192.515" y="404.667"/>
      <point x="167.68" y="378"/>
      <point x="130.82" y="352" type="curve"/>
      <point x="156.627" y="326"/>
      <point x="170.125" y="299.333"/>
      <point x="171.315" y="272" type="curve" smooth="yes"/>
      <point x="172.505" y="244.667"/>
      <point x="170.125" y="217"/>
      <point x="164.173" y="189" type="curve" smooth="yes"/>
      <point x="140.154" y="76" type="line" smooth="yes"/>
      <point x="109.406" y="-68.6578"/>
      <point x="196.051" y="-98"/>
      <point x="199.169" y="-98" type="curve"/>
      <point x="191.131" y="-117" type="line"/>
      <point x="188.108" y="-117"/>
      <point x="88.0342" y="-84.5225"/>
      <point x="122.154" y="76" type="curve" smooth="yes"/>
      <point x="146.173" y="189" type="line" smooth="yes"/>
      <point x="152.125" y="217"/>
      <point x="154.126" y="243.667"/>
      <point x="152.178" y="269" type="curve" smooth="yes"/>
      <point x="150.229" y="294.333"/>
      <point x="136.21" y="319.333"/>
      <point x="110.119" y="344" type="curve" smooth="yes"/>
      <point x="100.82" y="352" type="line"/>
      <point x="113.52" y="360" type="line" smooth="yes"/>
      <point x="149.955" y="384"/>
      <point x="174.567" y="408.833"/>
      <point x="187.356" y="434.5" type="curve" smooth="yes"/>
      <point x="200.145" y="460.167"/>
      <point x="209.515" y="487"/>
      <point x="215.467" y="515" type="curve" smooth="yes"/>
      <point x="239.485" y="628" type="line" smooth="yes"/>
      <point x="273.694" y="788.94"/>
      <point x="386.854" y="817.161"/>
      <point x="390.296" y="820" type="curve"/>
      <point x="389.258" y="801" type="line"/>
      <point x="386.934" y="801"/>
      <point x="288.104" y="772.049"/>
      <point x="257.485" y="628" type="curve" smooth="yes"/>
    </contour>
  </outline>
</glyph>
<glyph name="asciitilde" format="1">
  <advance width="266"/>
  <unicode hex="007E"/>
  <outline>
    <contour>
      <point x="343.255" y="307" type="line"/>
      <point x="314.72" y="285.667"/>
      <point x="289.757" y="278"/>
      <point x="267.091" y="278" type="curve" smooth="yes"/>
      <point x="214.582" y="278"/>
      <point x="174.479" y="317"/>
      <point x="130.38" y="317" type="curve" smooth="yes"/>
      <point x="110.38" y="317"/>
      <point x="87.4883" y="309.667"/>
      <point x="60.0037" y="287" type="curve"/>
      <point x="52.6172" y="304" type="line"/>
      <point x="84.6686" y="329.333"/>
      <point x="111.298" y="337"/>
      <point x="136.632" y="337" type="curve" smooth="yes"/>
      <point x="187.059" y="337"/>
      <point x="223.183" y="299.017"/>
      <point x="267.129" y="297" type="curve" smooth="yes"/>
      <point x="288.179" y="295.667"/>
      <point x="310.859" y="302"/>
      <point x="336.443" y="322" type="curve"/>
    </contour>
  </outline>
</glyph>
<glyph name="sterling" format="1">
  <advance width="424"/>
  <unicode hex="00A3"/>
  <outline>
    <contour>
      <point x="139.401" y="19" type="line" smooth="yes"/>
      <point x="240" y="19"/>
      <point x="326" y="76"/>
      <point x="333" y="180" type="curve" smooth="yes"/>
      <point x="337" y="224"/>
      <point x="323" y="271"/>
      <point x="293.168" y="316" type="curve" smooth="yes"/>
      <point x="253.709" y="375" type="line"/>
      <point x="112.709" y="375" type="line"/>
      <point x="117.172" y="396" type="line"/>
      <point x="239.172" y="396" type="line"/>
      <point x="230.723" y="408" type="line" smooth="yes"/>
      <point x="200" y="456"/>
      <point x="178" y="503"/>
      <point x="182" y="552" type="curve" smooth="yes"/>
      <point x="189" y="636"/>
      <point x="261" y="698"/>
      <point x="345.852" y="705" type="curve" smooth="yes"/>
      <point x="398" y="709"/>
      <point x="455.06" y="695"/>
      <point x="499.775" y="667" type="curve"/>
      <point x="491" y="651" type="line"/>
      <point x="453.718" y="676.333"/>
      <point x="404.685" y="691.667"/>
      <point x="349.452" y="689" type="curve" smooth="yes"/>
      <point x="274" y="684"/>
      <point x="206" y="626"/>
      <point x="200" y="550" type="curve" smooth="yes"/>
      <point x="200" y="500"/>
      <point x="217" y="462"/>
      <point x="245.274" y="420" type="curve" smooth="yes"/>
      <point x="261" y="396" type="line"/>
      <point x="475.172" y="396" type="line"/>
      <point x="470.709" y="375" type="line"/>
      <point x="275.709" y="375" type="line"/>
      <point x="306.931" y="329" type="line" smooth="yes"/>
      <point x="339" y="281"/>
      <point x="357" y="230"/>
      <point x="353" y="180" type="curve" smooth="yes"/>
      <point x="346" y="103"/>
      <point x="299" y="46"/>
      <point x="227.401" y="19" type="curve"/>
      <point x="394.401" y="19" type="line"/>
      <point x="391" y="0" type="line"/>
      <point x="33" y="0" type="line"/>
      <point x="36.4009" y="19" type="line"/>
    </contour>
  </outline>
</glyph>
<glyph name="ordfeminine" format="1">
  <advance width="325"/>
  <unicode hex="00AA"/>
  <outline>
    <contour>
      <point x="372.685" y="389" type="curve"/>
      <point x="324.884" y="383.667"/>
      <point x="292.247" y="380.667"/>
      <point x="270.346" y="378" type="curve"/>
      <point x="120.029" y="375.326"/>
      <point x="118.319" y="453.147"/>
      <point x="131.467" y="515" type="curve" smooth="yes"/>
      <point x="141.935" y="564.248"/>
      <point x="181.502" y="628"/>
      <point x="253.486" y="628" type="curve" smooth="yes"/>
      <point x="298.819" y="628"/>
      <point x="345.234" y="608"/>
      <point x="392.732" y="568" type="curve"/>
      <point x="401.518" y="609.333"/>
      <point x="397.895" y="639.333"/>
      <point x="381.862" y="658" type="curve" smooth="yes"/>
      <point x="362.68" y="680.667"/>
      <point x="325.593" y="689.667"/>
      <point x="269.877" y="691" type="curve"/>
      <point x="276.278" y="707" type="line"/>
      <point x="338.944" y="707"/>
      <point x="380.918" y="694.333"/>
      <point x="398.2" y="669" type="curve" smooth="yes"/>
      <point x="415.766" y="645"/>
      <point x="418.88" y="606.333"/>
      <point x="407.544" y="553" type="curve"/>
      <point x="407.792" y="554.167"/>
      <point x="372.879" y="389.917"/>
    </contour>
    <contour>
      <point x="387.268" y="547" type="line"/>
      <point x="339.004" y="589.667"/>
      <point x="293.751" y="612"/>
      <point x="251.085" y="612" type="curve" smooth="yes"/>
      <point x="186.588" y="612"/>
      <point x="157.594" y="548.533"/>
      <point x="149.829" y="512" type="curve" smooth="yes"/>
      <point x="140.476" y="468"/>
      <point x="142.483" y="436.667"/>
      <point x="174.998" y="414" type="curve" smooth="yes"/>
      <point x="210.487" y="389.595"/>
      <point x="289.529" y="395.8"/>
      <point x="356.873" y="404" type="curve"/>
    </contour>
  </outline>
</glyph>
<glyph name="overscore" format="1">
  <advance width="266"/>
  <unicode hex="00AF"/>
  <outline>
    <contour>
      <point x="529.942" y="675" type="line"/>
      <point x="521.866" y="656" type="line"/>
      <point x="301.866" y="656" type="line"/>
      <point x="309.942" y="675" type="line"/>
    </contour>
  </outline>
</glyph>
<glyph name="degree" format="1">
  <advance width="347"/>
  <unicode hex="00B0"/>
  <outline>
    <contour>
      <point x="437.669" y="563" type="curve" smooth="yes"/>
      <point x="420.683" y="483.086"/>
      <point x="341.759" y="418"/>
      <point x="261.849" y="418" type="curve" smooth="yes"/>
      <point x="181.094" y="418"/>
      <point x="129.639" y="482.879"/>
      <point x="146.669" y="563" type="curve" smooth="yes"/>
      <point x="163.649" y="642.883"/>
      <point x="242.919" y="708"/>
      <point x="323.49" y="708" type="curve" smooth="yes"/>
      <point x="403.584" y="708"/>
      <point x="454.693" y="643.09"/>
    </contour>
    <contour>
      <point x="319.451" y="689" type="curve" smooth="yes"/>
      <point x="249.92" y="689"/>
      <point x="181.449" y="632.534"/>
      <point x="166.669" y="563" type="curve" smooth="yes"/>
      <point x="152.199" y="494.924"/>
      <point x="196.424" y="438"/>
      <point x="266.1" y="438" type="curve" smooth="yes"/>
      <point x="334.944" y="438"/>
      <point x="403.217" y="495.006"/>
      <point x="417.669" y="563" type="curve" smooth="yes"/>
      <point x="432.467" y="632.615"/>
      <point x="388.44" y="689"/>
    </contour>
  </outline>
</glyph>
<glyph name="mu" format="1">
  <advance width="460"/>
  <unicode hex="00B5"/>
  <outline>
    <contour>
      <point x="422.882" y="70" type="line" smooth="yes"/>
      <point x="416.825" y="41.5089"/>
      <point x="417.025" y="26.5513"/>
      <point x="432.126" y="10" type="curve"/>
      <point x="418.575" y="-2" type="line"/>
      <point x="419.843" y="-1.9167"/>
      <point x="390.868" y="16.6666"/>
      <point x="401.543" y="61" type="curve"/>
      <point x="370.275" y="17"/>
      <point x="311" y="-14"/>
      <point x="243" y="-14" type="curve" smooth="yes"/>
      <point x="171.024" y="-14"/>
      <point x="95.8876" y="15.0769"/>
      <point x="76" y="90" type="curve"/>
      <point x="11.8729" y="-211.114" type="line"/>
      <point x="-6.11889" y="-204.627" type="line"/>
      <point x="145.087" y="499" type="line"/>
      <point x="163.087" y="499" type="line"/>
      <point x="92.0985" y="161.588" type="line" smooth="yes"/>
      <point x="75.1438" y="81.0021"/>
      <point x="122.638" y="3"/>
      <point x="243" y="3" type="curve" smooth="yes"/>
      <point x="326" y="3"/>
      <point x="400.41" y="53.6667"/>
      <point x="417.701" y="135" type="curve" smooth="yes"/>
      <point x="496.363" y="505" type="line"/>
      <point x="516.001" y="508" type="line"/>
    </contour>
  </outline>
</glyph>
<glyph name="Thorn" format="1">
  <advance width="397"/>
  <unicode hex="00DE"/>
  <outline>
    <contour>
      <point x="429.429" y="289" type="line" smooth="yes"/>
      <point x="408" y="192"/>
      <point x="353.566" y="140.667"/>
      <point x="282.082" y="118" type="curve"/>
      <point x="222.397" y="100.667"/>
      <point x="145.61" y="101.667"/>
      <point x="85.2942" y="119" type="curve"/>
      <point x="60" y="0" type="line"/>
      <point x="41" y="0" type="line"/>
      <point x="189.364" y="698" type="line"/>
      <point x="208.364" y="698" type="line"/>
      <point x="186.896" y="597" type="line"/>
      <point x="246.664" y="621"/>
      <point x="311.719" y="630.667"/>
      <point x="362.785" y="620" type="curve" smooth="yes"/>
      <point x="458" y="599"/>
      <point x="477" y="517"/>
      <point x="460.462" y="435" type="curve" smooth="yes"/>
    </contour>
    <contour>
      <point x="351.959" y="602" type="curve" smooth="yes"/>
      <point x="305.21" y="611.765"/>
      <point x="243.743" y="603.692"/>
      <point x="182.007" y="574" type="curve"/>
      <point x="89.1203" y="137" type="line"/>
      <point x="113.361" y="131.346"/>
      <point x="201.445" y="112.426"/>
      <point x="283.12" y="137" type="curve" smooth="yes"/>
      <point x="360.222" y="161"/>
      <point x="394.7" y="215"/>
      <point x="410.854" y="291" type="curve" smooth="yes"/>
      <point x="440.187" y="429" type="line" smooth="yes"/>
      <point x="457" y="507"/>
      <point x="440" y="581"/>
    </contour>
  </outline>
</glyph>
<glyph name="germandbls" format="1">
  <advance width="462"/>
  <unicode hex="00DF"/>
  <outline>
    <contour>
      <point x="59" y="0" type="line"/>
      <point x="52.3333" y="0"/>
      <point x="45.6667" y="0"/>
      <point x="39" y="0" type="curve"/>
      <point x="153.993" y="541" type="line" smooth="yes"/>
      <point x="180.333" y="664.921"/>
      <point x="253.579" y="698"/>
      <point x="313.364" y="698" type="curve" smooth="yes"/>
      <point x="386.958" y="698"/>
      <point x="419.336" y="636.705"/>
      <point x="407.92" y="583" type="curve" smooth="yes"/>
      <point x="398.851" y="540.333"/>
      <point x="367.995" y="498.667"/>
      <point x="318.578" y="492" type="curve"/>
      <point x="314.161" y="492"/>
      <point x="311.244" y="492"/>
      <point x="307.578" y="492" type="curve"/>
      <point x="294.56" y="474.667"/>
      <point x="287.947" y="457.667"/>
      <point x="286.163" y="443" type="curve" smooth="yes"/>
      <point x="275.939" y="375.718"/>
      <point x="351.955" y="338.556"/>
      <point x="420" y="276" type="curve" smooth="yes"/>
      <point x="459.636" y="239.561"/>
      <point x="476" y="189"/>
      <point x="465.696" y="135" type="curve" smooth="yes"/>
      <point x="451.858" y="58.6325"/>
      <point x="379.462" y="-11"/>
      <point x="279.663" y="-11" type="curve" smooth="yes"/>
      <point x="178.65" y="-11"/>
      <point x="140.565" y="38.3334"/>
      <point x="140.653" y="36" type="curve"/>
      <point x="154" y="51" type="line"/>
      <point x="153.991" y="52.9167"/>
      <point x="190" y="9"/>
      <point x="276.914" y="9" type="curve" smooth="yes"/>
      <point x="388" y="9"/>
      <point x="431.921" y="83.8773"/>
      <point x="443" y="136" type="curve" smooth="yes"/>
      <point x="460.584" y="218.727"/>
      <point x="415.44" y="254.445"/>
      <point x="366.492" y="294" type="curve" smooth="yes"/>
      <point x="312.287" y="339.201"/>
      <point x="254.635" y="379.353"/>
      <point x="268.801" y="446" type="curve" smooth="yes"/>
      <point x="272.485" y="463.333"/>
      <point x="281.141" y="483.667"/>
      <point x="296.342" y="505" type="curve"/>
      <point x="351.008" y="505"/>
      <point x="383.54" y="542"/>
      <point x="390.709" y="582" type="curve" smooth="yes"/>
      <point x="398.404" y="627.511"/>
      <point x="374.142" y="680"/>
      <point x="310.539" y="680" type="curve" smooth="yes"/>
      <point x="239.206" y="680"/>
      <point x="193.549" y="633"/>
      <point x="173.569" y="539" type="curve" smooth="yes"/>
    </contour>
  </outline>
</glyph>
<glyph name="ae" format="1">
  <advance width="784"/>
  <unicode hex="00E6"/>
  <outline>
    <contour>
      <point x="442.057" y="132" type="line" smooth="yes"/>
      <point x="422.743" y="41.131"/>
      <point x="480.585" y="7"/>
      <point x="568.488" y="7" type="curve" smooth="yes"/>
      <point x="623.155" y="7"/>
      <point x="667.918" y="20"/>
      <point x="732.053" y="52" type="curve"/>
      <point x="737.439" y="35" type="line"/>
      <point x="680.254" y="4.33333"/>
      <point x="622.449" y="-12"/>
      <point x="566.449" y="-12" type="curve" smooth="yes"/>
      <point x="485.116" y="-12"/>
      <point x="435.834" y="13.3333"/>
      <point x="422.604" y="64" type="curve"/>
      <point x="409" y="0" type="line"/>
      <point x="410.728" y="0.1389"/>
      <point x="265.21" y="-10.1389"/>
      <point x="226.874" y="-10" type="curve"/>
      <point x="82.7746" y="-10"/>
      <point x="35.6852" y="50.2699"/>
      <point x="60.7095" y="168" type="curve" smooth="yes"/>
      <point x="78.3517" y="251" type="line" smooth="yes"/>
      <point x="91.9208" y="314.838"/>
      <point x="137.142" y="403"/>
      <point x="271.66" y="403" type="curve" smooth="yes"/>
      <point x="344.994" y="403"/>
      <point x="409.567" y="374.333"/>
      <point x="463.332" y="345" type="curve"/>
      <point x="480.517" y="425.847"/>
      <point x="447.984" y="488"/>
      <point x="303.728" y="488" type="curve"/>
      <point x="305.145" y="494.667"/>
      <point x="307.633" y="501.667"/>
      <point x="308.766" y="507" type="curve"/>
      <point x="424.182" y="507"/>
      <point x="480.828" y="465.194"/>
      <point x="485.11" y="391" type="curve"/>
      <point x="520.98" y="465.667"/>
      <point x="597.645" y="508"/>
      <point x="686.979" y="508" type="curve" smooth="yes"/>
      <point x="797.091" y="508"/>
      <point x="850.295" y="448.329"/>
      <point x="827.482" y="341" type="curve" smooth="yes"/>
      <point x="807.289" y="246" type="line"/>
      <point x="462.675" y="229" type="line"/>
    </contour>
    <contour>
      <point x="458.443" y="322" type="line"/>
      <point x="394.899" y="358.691"/>
      <point x="340.039" y="383"/>
      <point x="266.409" y="383" type="curve" smooth="yes"/>
      <point x="163.727" y="383"/>
      <point x="111.661" y="323.026"/>
      <point x="95.9266" y="249" type="curve" smooth="yes"/>
      <point x="77.4342" y="162" type="line" smooth="yes"/>
      <point x="62.0544" y="89.6441"/>
      <point x="73.8666" y="5.30585"/>
      <point x="230.7" y="8" type="curve"/>
      <point x="274.647" y="7.7778"/>
      <point x="396.311" y="18.2222"/>
      <point x="393.826" y="18" type="curve"/>
    </contour>
    <contour>
      <point x="807.694" y="342" type="line" smooth="yes"/>
      <point x="833.239" y="462.179"/>
      <point x="750.96" y="491"/>
      <point x="680.365" y="491" type="curve" smooth="yes"/>
      <point x="612.892" y="491"/>
      <point x="512.326" y="462.589"/>
      <point x="484.569" y="332" type="curve" smooth="yes"/>
      <point x="466.714" y="248" type="line"/>
      <point x="791.115" y="264" type="line"/>
    </contour>
  </outline>
</glyph>
<glyph name="thorn" format="1">
  <advance width="443"/>
  <unicode hex="00FE"/>
  <outline>
    <contour>
      <point x="145.81" y="399" type="line"/>
      <point x="196.064" y="472.333"/>
      <point x="266.191" y="509"/>
      <point x="338.191" y="509" type="curve" smooth="yes"/>
      <point x="452.097" y="509"/>
      <point x="509.683" y="426.629"/>
      <point x="484.68" y="309" type="curve" smooth="yes"/>
      <point x="462.602" y="205.13"/>
      <point x="366.454" y="116"/>
      <point x="255.657" y="116" type="curve" smooth="yes"/>
      <point x="179.657" y="116"/>
      <point x="123.35" y="155.333"/>
      <point x="110.738" y="234" type="curve"/>
      <point x="61" y="0" type="line"/>
      <point x="41" y="0" type="line"/>
      <point x="189.364" y="698" type="line"/>
      <point x="209.364" y="698" type="line"/>
    </contour>
    <contour>
      <point x="336.79" y="493" type="curve" smooth="yes"/>
      <point x="243" y="493"/>
      <point x="151.61" y="416.877"/>
      <point x="130.806" y="319" type="curve" smooth="yes"/>
      <point x="111.154" y="226.545"/>
      <point x="144.038" y="133"/>
      <point x="258.27" y="133" type="curve" smooth="yes"/>
      <point x="357.736" y="133"/>
      <point x="446.199" y="212.643"/>
      <point x="467.955" y="315" type="curve" smooth="yes"/>
      <point x="487.98" y="409.21"/>
      <point x="438" y="493"/>
    </contour>
  </outline>
</glyph>
<glyph name="Lslash" format="1">
  <advance width="504"/>
  <unicode hex="0141"/>
  <outline>
    <contour>
      <point x="125" y="0" type="line"/>
      <point x="207.047" y="386" type="line"/>
      <point x="97.4818" y="341" type="line"/>
      <point x="93.0952" y="358" type="line"/>
      <point x="211.298" y="406" type="line"/>
      <point x="273.364" y="698" type="line"/>
      <point x="293.364" y="698" type="line"/>
      <point x="233.211" y="415" type="line"/>
      <point x="410.728" y="488" type="line"/>
      <point x="415.327" y="472" type="line"/>
      <point x="228.96" y="395" type="line"/>
      <point x="149.251" y="20" type="line"/>
      <point x="490.251" y="20" type="line"/>
      <point x="486" y="0" type="line"/>
    </contour>
  </outline>
</glyph>
<glyph name="lslash" format="1">
  <advance width="333"/>
  <unicode hex="0142"/>
  <outline>
    <contour>
      <point x="249.699" y="422" type="line"/>
      <point x="308.364" y="698" type="line"/>
      <point x="327.364" y="698" type="line"/>
      <point x="270.399" y="430" type="line"/>
      <point x="407.515" y="487" type="line"/>
      <point x="412.114" y="471" type="line"/>
      <point x="266.148" y="410" type="line"/>
      <point x="179" y="0" type="line"/>
      <point x="160" y="0" type="line"/>
      <point x="245.66" y="403" type="line"/>
      <point x="93.2692" y="340" type="line"/>
      <point x="89.6701" y="356" type="line"/>
    </contour>
  </outline>
</glyph>
<glyph name="oe" format="1">
  <advance width="772"/>
  <unicode hex="0153"/>
  <outline>
    <contour>
      <point x="430.057" y="132" type="line" smooth="yes"/>
      <point x="409.641" y="35.947"/>
      <point x="472.237" y="7"/>
      <point x="556.488" y="7" type="curve" smooth="yes"/>
      <point x="611.155" y="7"/>
      <point x="655.918" y="20"/>
      <point x="720.053" y="52" type="curve"/>
      <point x="725.439" y="35" type="line"/>
      <point x="668.254" y="4.33333"/>
      <point x="610.449" y="-12"/>
      <point x="554.449" y="-12" type="curve" smooth="yes"/>
      <point x="474.141" y="-12"/>
      <point x="402.596" y="12.2583"/>
      <point x="406.318" y="105" type="curve"/>
      <point x="370.248" y="35.6667"/>
      <point x="302.541" y="-10"/>
      <point x="211.874" y="-10" type="curve" smooth="yes"/>
      <point x="83.4427" y="-10"/>
      <point x="43.4092" y="77.1996"/>
      <point x="66.1103" y="184" type="curve" smooth="yes"/>
      <point x="93.9552" y="315" type="line" smooth="yes"/>
      <point x="120.879" y="441.667"/>
      <point x="203.737" y="510"/>
      <point x="322.404" y="510" type="curve" smooth="yes"/>
      <point x="415.737" y="510"/>
      <point x="465.009" y="462.667"/>
      <point x="469.622" y="384" type="curve"/>
      <point x="504.081" y="465.874"/>
      <point x="589.163" y="508"/>
      <point x="674.979" y="508" type="curve" smooth="yes"/>
      <point x="780.9" y="508"/>
      <point x="838.822" y="450.807"/>
      <point x="815.482" y="341" type="curve" smooth="yes"/>
      <point x="795.289" y="246" type="line"/>
      <point x="450.675" y="229" type="line"/>
    </contour>
    <contour>
      <point x="444.806" y="319" type="line" smooth="yes"/>
      <point x="469.179" y="433.667"/>
      <point x="413.244" y="492"/>
      <point x="318.578" y="492" type="curve" smooth="yes"/>
      <point x="206.696" y="492"/>
      <point x="137.556" y="426.034"/>
      <point x="114.806" y="319" type="curve" smooth="yes"/>
      <point x="86.1104" y="184" type="line" smooth="yes"/>
      <point x="65.2777" y="85.9898"/>
      <point x="104.72" y="8"/>
      <point x="215.7" y="8" type="curve" smooth="yes"/>
      <point x="329.666" y="8"/>
      <point x="394.803" y="83.7586"/>
      <point x="416.11" y="184" type="curve" smooth="yes"/>
    </contour>
    <contour>
      <point x="795.694" y="342" type="line" smooth="yes"/>
      <point x="816.789" y="441.245"/>
      <point x="763.989" y="491"/>
      <point x="668.365" y="491" type="curve" smooth="yes"/>
      <point x="565.322" y="491"/>
      <point x="493.992" y="432.786"/>
      <point x="472.569" y="332" type="curve" smooth="yes"/>
      <point x="454.714" y="248" type="line"/>
      <point x="779.115" y="264" type="line"/>
    </contour>
  </outline>
</glyph>
<glyph name="caron" format="1">
  <advance width="266"/>
  <unicode hex="02C7"/>
  <outline>
    <contour>
      <point x="404.065" y="706" type="line"/>
      <point x="256.771" y="587" type="line"/>
      <point x="161.852" y="705" type="line"/>
      <point x="180.253" y="721" type="line"/>
      <point x="263.147" y="617" type="line"/>
      <point x="393.253" y="721" type="line"/>
    </contour>
  </outline>
</glyph>
<glyph name="breve" format="1">
  <advance width="266"/>
  <unicode hex="02D8"/>
  <outline>
    <contour>
      <point x="394.215" y="702" type="line"/>
      <point x="392.727" y="695" type="line" smooth="yes"/>
      <point x="379.411" y="632.353"/>
      <point x="318.658" y="582"/>
      <point x="256.708" y="582" type="curve" smooth="yes"/>
      <point x="195.227" y="582"/>
      <point x="154.387" y="632.24"/>
      <point x="167.727" y="695" type="curve" smooth="yes"/>
      <point x="169.215" y="702" type="line"/>
      <point x="191.215" y="702" type="line"/>
      <point x="189.727" y="695" type="line" smooth="yes"/>
      <point x="179.241" y="645.667"/>
      <point x="204" y="604"/>
      <point x="261.384" y="604" type="curve" smooth="yes"/>
      <point x="312" y="604"/>
      <point x="362.154" y="645.258"/>
      <point x="372.727" y="695" type="curve" smooth="yes"/>
      <point x="374.215" y="702" type="line"/>
    </contour>
  </outline>
</glyph>
<glyph name="uni0308" format="1">
  <advance width="266"/>
  <unicode hex="0308"/>
  <outline>
    <contour>
      <point x="218" y="724"/>
      <point x="222" y="718"/>
      <point x="221" y="706" type="curve"/>
      <point x="218" y="695"/>
      <point x="211" y="690"/>
      <point x="200" y="690" type="curve" smooth="yes"/>
      <point x="191" y="690"/>
      <point x="184" y="697"/>
      <point x="187" y="706" type="curve"/>
      <point x="188" y="717"/>
      <point x="198" y="724"/>
      <point x="207" y="724" type="curve" smooth="yes"/>
    </contour>
    <contour>
      <point x="376" y="724"/>
      <point x="380" y="718"/>
      <point x="379" y="706" type="curve"/>
      <point x="376" y="695"/>
      <point x="369" y="690"/>
      <point x="358" y="690" type="curve" smooth="yes"/>
      <point x="349" y="690"/>
      <point x="343" y="697"/>
      <point x="346" y="706" type="curve"/>
      <point x="347" y="717"/>
      <point x="356" y="724"/>
      <point x="365" y="724" type="curve" smooth="yes"/>
    </contour>
  </outline>
</glyph>
<glyph name="tonos" format="1">
  <advance width="266"/>
  <unicode hex="0384"/>
  <outline>
    <contour>
      <point x="314.814" y="686" type="curve" smooth="yes"/>
      <point x="237.558" y="586" type="line"/>
      <point x="216.558" y="586" type="line"/>
      <point x="293.002" y="701" type="line"/>
      <point x="297.653" y="710.333"/>
      <point x="308.765" y="714"/>
      <point x="315.915" y="710" type="curve" smooth="yes"/>
      <point x="324.115" y="704.667"/>
      <point x="321.848" y="694"/>
    </contour>
  </outline>
</glyph>
<glyph name="Zeta" format="1">
  <advance width="540"/>
  <unicode hex="0396"/>
  <outline>
    <contour>
      <point x="654.365" y="698" type="line"/>
      <point x="650.326" y="679" type="line"/>
      <point x="55.0386" y="19" type="line"/>
      <point x="517.039" y="19" type="line"/>
      <point x="513" y="0" type="line"/>
      <point x="27" y="0" type="line"/>
      <point x="31.0386" y="19" type="line"/>
      <point x="626.326" y="679" type="line"/>
      <point x="185.326" y="679" type="line"/>
      <point x="188.365" y="698" type="line"/>
    </contour>
  </outline>
</glyph>
<glyph name="Theta" format="1">
  <advance width="486"/>
  <unicode hex="0398"/>
  <outline>
    <contour>
      <point x="140.554" y="506" type="line" smooth="yes"/>
      <point x="169.461" y="642"/>
      <point x="264.765" y="714"/>
      <point x="396.765" y="714" type="curve" smooth="yes"/>
      <point x="527.432" y="714"/>
      <point x="586.115" y="635.667"/>
      <point x="558.341" y="505" type="curve" smooth="yes"/>
      <point x="490.323" y="185" type="line" smooth="yes"/>
      <point x="464.375" y="62.9232"/>
      <point x="365.771" y="-11"/>
      <point x="240.662" y="-11" type="curve" smooth="yes"/>
      <point x="124.035" y="-11"/>
      <point x="44.9013" y="55.9913"/>
      <point x="72.323" y="185" type="curve" smooth="yes"/>
    </contour>
    <contour>
      <point x="540.979" y="508" type="line" smooth="yes"/>
      <point x="565.635" y="624"/>
      <point x="515.968" y="693"/>
      <point x="389.302" y="693" type="curve" smooth="yes"/>
      <point x="263.968" y="693"/>
      <point x="183.927" y="620.667"/>
      <point x="159.554" y="506" type="curve" smooth="yes"/>
      <point x="128.308" y="359" type="line"/>
      <point x="509.308" y="359" type="line"/>
    </contour>
    <contour>
      <point x="244.7" y="8" type="curve" smooth="yes"/>
      <point x="352.465" y="8"/>
      <point x="447.093" y="66.3024"/>
      <point x="472.11" y="184" type="curve" smooth="yes"/>
      <point x="505.057" y="339" type="line"/>
      <point x="124.057" y="339" type="line"/>
      <point x="91.1104" y="184" type="line" smooth="yes"/>
      <point x="68.3487" y="76.9145"/>
      <point x="138.432" y="8"/>
    </contour>
  </outline>
</glyph>
<glyph name="Sigma" format="1">
  <advance width="520"/>
  <unicode hex="03A3"/>
  <outline>
    <contour>
      <point x="334.251" y="20" type="line" smooth="yes"/>
      <point x="414.326" y="20"/>
      <point x="458.073" y="38.2784"/>
      <point x="494.806" y="112" type="curve"/>
      <point x="513.531" y="106" type="line"/>
      <point x="476.327" y="31.3333"/>
      <point x="425.667" y="0"/>
      <point x="347" y="0" type="curve" smooth="yes"/>
      <point x="25" y="0" type="line"/>
      <point x="331.409" y="383" type="line"/>
      <point x="189.79" y="700" type="line"/>
      <point x="616.79" y="700" type="line"/>
      <point x="603.538" y="680" type="line"/>
      <point x="220.538" y="680" type="line"/>
      <point x="355" y="381" type="line"/>
      <point x="66" y="20" type="line"/>
    </contour>
  </outline>
</glyph>
<glyph name="Psi" format="1">
  <advance width="589"/>
  <unicode hex="03A8"/>
  <outline>
    <contour>
      <point x="137.085" y="405" type="line" smooth="yes"/>
      <point x="111.295" y="283.667"/>
      <point x="165.009" y="229"/>
      <point x="267.675" y="229" type="curve" smooth="yes"/>
      <point x="328.675" y="229" type="line"/>
      <point x="428.364" y="698" type="line"/>
      <point x="448.364" y="698" type="line"/>
      <point x="348.675" y="229" type="line"/>
      <point x="418.675" y="229" type="line" smooth="yes"/>
      <point x="529.342" y="229"/>
      <point x="601.279" y="293"/>
      <point x="625.085" y="405" type="curve" smooth="yes"/>
      <point x="665.896" y="597" type="line" smooth="yes"/>
      <point x="680.921" y="667.685"/>
      <point x="652.161" y="685.744"/>
      <point x="632.79" y="700" type="curve"/>
      <point x="651.277" y="707" type="line"/>
      <point x="660.611" y="702.92"/>
      <point x="699.658" y="675.857"/>
      <point x="683.109" y="598" type="curve" smooth="yes"/>
      <point x="642.085" y="405" type="line" smooth="yes"/>
      <point x="616.295" y="283.667"/>
      <point x="541.729" y="212"/>
      <point x="415.062" y="212" type="curve" smooth="yes"/>
      <point x="345.062" y="212" type="line"/>
      <point x="300" y="0" type="line"/>
      <point x="280" y="0" type="line"/>
      <point x="325.062" y="212" type="line"/>
      <point x="264.062" y="212" type="line" smooth="yes"/>
      <point x="138.729" y="212"/>
      <point x="91.2952" y="283.667"/>
      <point x="117.085" y="405" type="curve" smooth="yes"/>
      <point x="179.364" y="698" type="line"/>
      <point x="199.364" y="698" type="line"/>
    </contour>
  </outline>
</glyph>
<glyph name="alpha" format="1">
  <advance width="437"/>
  <unicode hex="03B1"/>
  <outline>
    <contour>
      <point x="504.09" y="485" type="line"/>
      <point x="497.125" y="467.887"/>
      <point x="489.893" y="451.142"/>
      <point x="486.037" y="433" type="curve" smooth="yes"/>
      <point x="394.85" y="4" type="line"/>
      <point x="396.373" y="4.8889"/>
      <point x="278.294" y="-4.88888"/>
      <point x="205.15" y="-4" type="curve"/>
      <point x="69" y="-4"/>
      <point x="46.0663" y="75.5814"/>
      <point x="63.3723" y="157" type="curve" smooth="yes"/>
      <point x="105.033" y="353" type="line" smooth="yes"/>
      <point x="130.702" y="473.759"/>
      <point x="215.171" y="506"/>
      <point x="293.555" y="506" type="curve" smooth="yes"/>
      <point x="354.888" y="506"/>
      <point x="418.474" y="483.667"/>
      <point x="473.289" y="453" type="curve"/>
      <point x="479.64" y="470.333"/>
      <point x="488.729" y="488"/>
      <point x="488.729" y="488" type="curve"/>
    </contour>
    <contour>
      <point x="83.4342" y="162" type="line" smooth="yes"/>
      <point x="62.7453" y="64.6667"/>
      <point x="103.642" y="14"/>
      <point x="208.976" y="14" type="curve"/>
      <point x="277.225" y="13.1111"/>
      <point x="381.859" y="22.8889"/>
      <point x="379.676" y="22" type="curve"/>
      <point x="466.824" y="432" type="line"/>
      <point x="408.377" y="470.667"/>
      <point x="351.667" y="487"/>
      <point x="289" y="487" type="curve" smooth="yes"/>
      <point x="200.56" y="487"/>
      <point x="142.039" y="437.713"/>
      <point x="123.395" y="350" type="curve" smooth="yes"/>
    </contour>
  </outline>
</glyph>
<glyph name="beta" format="1">
  <advance width="441"/>
  <unicode hex="03B2"/>
  <outline>
    <contour>
      <point x="149.529" y="520" type="line" smooth="yes"/>
      <point x="169.992" y="616.267"/>
      <point x="254" y="701"/>
      <point x="356.002" y="701" type="curve" smooth="yes"/>
      <point x="440.213" y="701"/>
      <point x="489.886" y="638.987"/>
      <point x="467.331" y="552" type="curve" smooth="yes"/>
      <point x="452.889" y="496.299"/>
      <point x="403.585" y="434.402"/>
      <point x="325.66" y="403" type="curve"/>
      <point x="347.873" y="404" type="line"/>
      <point x="482.391" y="404"/>
      <point x="478.359" y="316.898"/>
      <point x="464.777" y="253" type="curve" smooth="yes"/>
      <point x="446.71" y="168" type="line" smooth="yes"/>
      <point x="421.509" y="49.4392"/>
      <point x="361.758" y="-11"/>
      <point x="216.662" y="-11" type="curve" smooth="yes"/>
      <point x="194.867" y="-11"/>
      <point x="100" y="-5"/>
      <point x="59" y="-1" type="curve"/>
      <point x="13.938" y="-212" type="line"/>
      <point x="-4.78665" y="-206" type="line"/>
    </contour>
    <contour>
      <point x="169.529" y="520" type="curve" smooth="yes"/>
      <point x="143.476" y="386.881" type="line"/>
      <point x="238.203" y="398.248" type="line" smooth="yes"/>
      <point x="328.433" y="409.076"/>
      <point x="418.139" y="456.312"/>
      <point x="447.544" y="553" type="curve" smooth="yes"/>
      <point x="470.025" y="626.923"/>
      <point x="431.418" y="681"/>
      <point x="352.751" y="681" type="curve" smooth="yes"/>
      <point x="260.71" y="681"/>
      <point x="187.246" y="604.951"/>
    </contour>
    <contour>
      <point x="62.826" y="18" type="line"/>
      <point x="61.0367" y="18.4379"/>
      <point x="176.079" y="7.66012"/>
      <point x="220.488" y="7" type="curve" smooth="yes"/>
      <point x="377.409" y="4.3307"/>
      <point x="412.958" y="89.1901"/>
      <point x="428.222" y="161" type="curve" smooth="yes"/>
      <point x="447.139" y="250" type="line" smooth="yes"/>
      <point x="462.707" y="323.24"/>
      <point x="449.677" y="385"/>
      <point x="345.834" y="385" type="curve" smooth="yes"/>
      <point x="319.608" y="385"/>
      <point x="282.921" y="382.81"/>
      <point x="248.451" y="379.189" type="curve" smooth="yes"/>
      <point x="137.687" y="367.462" type="line"/>
    </contour>
  </outline>
</glyph>
<glyph name="gamma" format="1">
  <advance width="501"/>
  <unicode hex="03B3"/>
  <outline>
    <contour>
      <point x="585" y="494" type="line"/>
      <point x="521" y="468"/>
      <point x="500" y="424"/>
      <point x="479" y="385" type="curve" smooth="yes"/>
      <point x="233" y="-92" type="line" smooth="yes"/>
      <point x="212" y="-135"/>
      <point x="165" y="-199"/>
      <point x="71" y="-199" type="curve"/>
      <point x="70" y="-180" type="line"/>
      <point x="166" y="-180"/>
      <point x="199" y="-118"/>
      <point x="219" y="-79" type="curve" smooth="yes"/>
      <point x="256" y="-6" type="line"/>
      <point x="188" y="-2"/>
      <point x="162" y="48"/>
      <point x="155" y="129" type="curve" smooth="yes"/>
      <point x="126" y="500" type="line"/>
      <point x="145" y="500" type="line"/>
      <point x="173" y="140" type="line" smooth="yes"/>
      <point x="181" y="56"/>
      <point x="204" y="15"/>
      <point x="267" y="15" type="curve"/>
      <point x="461" y="387" type="line" smooth="yes"/>
      <point x="495" y="453"/>
      <point x="517" y="481"/>
      <point x="578" y="508" type="curve"/>
    </contour>
  </outline>
</glyph>
<glyph name="kappa" format="1">
  <advance width="428"/>
  <unicode hex="03BA"/>
  <outline>
    <contour>
      <point x="314.806" y="112" type="line"/>
      <point x="348.436" y="50.6667"/>
      <point x="379.372" y="19"/>
      <point x="410.039" y="19" type="curve"/>
      <point x="405.787" y="-1" type="line"/>
      <point x="388.454" y="-1"/>
      <point x="371.084" y="6.66667"/>
      <point x="353.676" y="22" type="curve" smooth="yes"/>
      <point x="344.71" y="30"/>
      <point x="334.644" y="40.6667"/>
      <point x="325.478" y="54" type="curve" smooth="yes"/>
      <point x="317.645" y="67.3333"/>
      <point x="307.813" y="80.6667"/>
      <point x="300.831" y="98" type="curve"/>
      <point x="209.878" y="277" type="line"/>
      <point x="93.8351" y="178" type="line"/>
      <point x="56" y="0" type="line"/>
      <point x="38" y="0" type="line"/>
      <point x="146.404" y="510" type="line"/>
      <point x="163.554" y="506" type="line"/>
      <point x="99.5741" y="205" type="line"/>
      <point x="434.066" y="499" type="line"/>
      <point x="460.066" y="499" type="line"/>
      <point x="224.854" y="291" type="line"/>
    </contour>
  </outline>
</glyph>
<glyph name="lambda" format="1">
  <advance width="499"/>
  <unicode hex="03BB"/>
  <outline>
    <contour>
      <point x="424.019" y="113" type="line" smooth="yes"/>
      <point x="428.091" y="73.5522"/>
      <point x="429.04" y="33.505"/>
      <point x="484.063" y="5" type="curve"/>
      <point x="484.063" y="5"/>
      <point x="480.567" y="2.6667"/>
      <point x="470.3" y="-8" type="curve"/>
      <point x="421.84" y="17.9924"/>
      <point x="409.963" y="47.2761"/>
      <point x="403.594" y="111" type="curve"/>
      <point x="396.385" y="196.957"/>
      <point x="370.979" y="484.055"/>
      <point x="370.665" y="483" type="curve"/>
      <point x="305.331" y="483"/>
      <point x="264.879" y="441.667"/>
      <point x="223.308" y="359" type="curve"/>
      <point x="221.769" y="354.131"/>
      <point x="39.4886" y="-2.942"/>
      <point x="40.7874" y="-1" type="curve"/>
      <point x="22.7874" y="-1" type="line"/>
      <point x="22.3321" y="-3.3275"/>
      <point x="162.537" y="279.339"/>
      <point x="209.646" y="370" type="curve"/>
      <point x="248.274" y="449.227"/>
      <point x="298.949" y="501.977"/>
      <point x="366.128" y="504" type="curve"/>
      <point x="359.433" y="576" type="line" smooth="yes"/>
      <point x="356.038" y="614.821"/>
      <point x="350.219" y="676"/>
      <point x="255.688" y="676" type="curve"/>
      <point x="263.727" y="695" type="line"/>
      <point x="358.258" y="695"/>
      <point x="374.076" y="630.52"/>
      <point x="380.983" y="588" type="curve"/>
    </contour>
  </outline>
</glyph>
<glyph name="sigma" format="1">
  <advance width="425"/>
  <unicode hex="03C3"/>
  <outline>
    <contour>
      <point x="533.442" y="529" type="line"/>
      <point x="522.446" y="514.974"/>
      <point x="470.309" y="485.911"/>
      <point x="426.452" y="482" type="curve"/>
      <point x="469.75" y="447.333"/>
      <point x="480.093" y="400.333"/>
      <point x="462.806" y="319" type="curve" smooth="yes"/>
      <point x="434.11" y="184" type="line" smooth="yes"/>
      <point x="409.505" y="68.2391"/>
      <point x="333.184" y="-10"/>
      <point x="210.874" y="-10" type="curve" smooth="yes"/>
      <point x="84.0137" y="-10"/>
      <point x="43.404" y="77.1745"/>
      <point x="66.1104" y="184" type="curve" smooth="yes"/>
      <point x="96.506" y="327" type="line" smooth="yes"/>
      <point x="124.885" y="460.512"/>
      <point x="228" y="510"/>
      <point x="316.404" y="510" type="curve" smooth="yes"/>
      <point x="384.814" y="510"/>
      <point x="412" y="496"/>
      <point x="440.703" y="502" type="curve" smooth="yes"/>
      <point x="468" y="507"/>
      <point x="495.459" y="519.667"/>
      <point x="523.993" y="541" type="curve"/>
    </contour>
    <contour>
      <point x="443.806" y="319" type="line" smooth="yes"/>
      <point x="473.284" y="457.683"/>
      <point x="398.666" y="478.185"/>
      <point x="387.302" y="486" type="curve"/>
      <point x="367.103" y="491.333"/>
      <point x="339" y="494"/>
      <point x="311.79" y="493" type="curve" smooth="yes"/>
      <point x="223" y="490"/>
      <point x="140.446" y="439.629"/>
      <point x="115.656" y="323" type="curve" smooth="yes"/>
      <point x="86.1104" y="184" type="line" smooth="yes"/>
      <point x="65.283" y="86.0149"/>
      <point x="106.399" y="8"/>
      <point x="216.7" y="8" type="curve" smooth="yes"/>
      <point x="330.684" y="8"/>
      <point x="393.802" y="83.7524"/>
      <point x="415.11" y="184" type="curve" smooth="yes"/>
    </contour>
  </outline>
</glyph>
<glyph name="upsilon" format="1">
  <advance width="438"/>
  <unicode hex="03C5"/>
  <outline>
    <contour>
      <point x="442.11" y="184" type="line" smooth="yes"/>
      <point x="418" y="69"/>
      <point x="339" y="-10"/>
      <point x="217.874" y="-10" type="curve" smooth="yes"/>
      <point x="91.6928" y="-10"/>
      <point x="49.4093" y="77.1996"/>
      <point x="72.1104" y="184" type="curve" smooth="yes"/>
      <point x="139.066" y="499" type="line"/>
      <point x="159.066" y="499" type="line"/>
      <point x="92.1104" y="184" type="line" smooth="yes"/>
      <point x="71.283" y="86.0149"/>
      <point x="107.698" y="8"/>
      <point x="218" y="8" type="curve" smooth="yes"/>
      <point x="332.858" y="8"/>
      <point x="402.612" y="89.8672"/>
      <point x="424" y="190" type="curve" smooth="yes"/>
      <point x="490" y="499" type="line"/>
      <point x="509.066" y="499" type="line"/>
    </contour>
  </outline>
</glyph>
<glyph name="quotesinglbase" format="1">
  <advance width="113"/>
  <unicode hex="201A"/>
  <outline>
    <contour>
      <point x="24.4107" y="-31" type="line"/>
      <point x="48.3785" y="-12.3333"/>
      <point x="57.9339" y="10.6667"/>
      <point x="62.1014" y="24" type="curve"/>
      <point x="56.0015" y="26.6667"/>
      <point x="52.8018" y="32"/>
      <point x="54.5022" y="40" type="curve" smooth="yes"/>
      <point x="56.7695" y="50.6667"/>
      <point x="64.7824" y="57"/>
      <point x="74.1157" y="57" type="curve" smooth="yes"/>
      <point x="84.7824" y="57"/>
      <point x="89.7695" y="50.6667"/>
      <point x="87.5022" y="40" type="curve" smooth="yes"/>
      <point x="76.5228" y="-13.2222"/>
      <point x="31.7784" y="-37.1111"/>
      <point x="32.1354" y="-37" type="curve"/>
    </contour>
  </outline>
</glyph>
<glyph name="quotedblleft" format="1">
  <advance width="282"/>
  <unicode hex="201C"/>
  <outline>
    <contour>
      <point x="394.35" y="665" type="line"/>
      <point x="370.666" y="647.667"/>
      <point x="361.11" y="624.667"/>
      <point x="356.66" y="610" type="curve"/>
      <point x="364.376" y="608.667"/>
      <point x="367.172" y="603"/>
      <point x="365.471" y="595" type="curve" smooth="yes"/>
      <point x="363.487" y="585.667"/>
      <point x="354.404" y="579"/>
      <point x="345.07" y="579" type="curve" smooth="yes"/>
      <point x="335.737" y="579"/>
      <point x="330.487" y="585.667"/>
      <point x="332.471" y="595" type="curve" smooth="yes"/>
      <point x="342.228" y="648.222"/>
      <point x="388.417" y="672.111"/>
      <point x="386.838" y="672" type="curve"/>
    </contour>
    <contour>
      <point x="215.35" y="665" type="line"/>
      <point x="191.666" y="647.667"/>
      <point x="182.444" y="624.667"/>
      <point x="176.66" y="610" type="curve"/>
      <point x="183.043" y="608.667"/>
      <point x="188.172" y="603"/>
      <point x="186.471" y="595" type="curve" smooth="yes"/>
      <point x="184.487" y="585.667"/>
      <point x="175.737" y="579"/>
      <point x="165.07" y="579" type="curve" smooth="yes"/>
      <point x="155.737" y="579"/>
      <point x="151.487" y="585.667"/>
      <point x="153.471" y="595" type="curve" smooth="yes"/>
      <point x="163.228" y="648.222"/>
      <point x="209.417" y="672.111"/>
      <point x="207.838" y="672" type="curve"/>
    </contour>
  </outline>
</glyph>
<glyph name="quotedblright" format="1">
  <advance width="282"/>
  <unicode hex="201D"/>
  <outline>
    <contour>
      <point x="151.621" y="591" type="line"/>
      <point x="174.255" y="609.667"/>
      <point x="183.861" y="631.333"/>
      <point x="188.312" y="646" type="curve"/>
      <point x="182.212" y="648.667"/>
      <point x="178.799" y="653"/>
      <point x="180.5" y="661" type="curve" smooth="yes"/>
      <point x="182.767" y="671.667"/>
      <point x="192.326" y="679"/>
      <point x="200.326" y="679" type="curve" smooth="yes"/>
      <point x="210.993" y="679"/>
      <point x="215.767" y="671.667"/>
      <point x="213.5" y="661" type="curve" smooth="yes"/>
      <point x="202.402" y="607.222"/>
      <point x="158.107" y="585.444"/>
      <point x="158.346" y="585" type="curve"/>
    </contour>
    <contour>
      <point x="330.621" y="591" type="line"/>
      <point x="354.589" y="609.667"/>
      <point x="362.861" y="631.333"/>
      <point x="367.312" y="646" type="curve"/>
      <point x="362.545" y="648.667"/>
      <point x="357.799" y="653"/>
      <point x="359.5" y="661" type="curve" smooth="yes"/>
      <point x="361.767" y="671.667"/>
      <point x="370.993" y="679"/>
      <point x="380.326" y="679" type="curve" smooth="yes"/>
      <point x="390.993" y="679"/>
      <point x="394.767" y="671.667"/>
      <point x="392.5" y="661" type="curve" smooth="yes"/>
      <point x="382.625" y="607.222"/>
      <point x="336.884" y="585.444"/>
      <point x="338.346" y="585" type="curve"/>
    </contour>
  </outline>
</glyph>
<glyph name="guilsinglright" format="1">
  <advance width="262"/>
  <unicode hex="203A"/>
  <outline>
    <contour>
      <point x="261" y="269" type="line"/>
      <point x="124.525" y="440" type="line"/>
      <point x="143.288" y="453" type="line"/>
      <point x="289.54" y="266" type="line"/>
      <point x="63.792" y="79" type="line"/>
      <point x="52.4054" y="96" type="line"/>
    </contour>
  </outline>
</glyph>
<glyph name="Euro" format="1">
  <advance width="420"/>
  <unicode hex="20AC"/>
  <outline>
    <component base="C"/>
    <contour>
      <point x="95.5347" y="393" type="line"/>
      <point x="99.3607" y="411" type="line"/>
      <point x="438.361" y="411" type="line"/>
      <point x="434.535" y="393" type="line"/>
    </contour>
    <contour>
      <point x="73.2163" y="288" type="line"/>
      <point x="77.2549" y="307" type="line"/>
      <point x="416.255" y="307" type="line"/>
      <point x="412.216" y="288" type="line"/>
    </contour>
  </outline>
</glyph>
<glyph name="Y_upper_alt" format="1">
  <advance width="482"/>
  <unicode hex="9997"/>
  <outline>
    <contour>
      <point x="320.482" y="341" type="line"/>
      <point x="248" y="0" type="line"/>
      <point x="230" y="0" type="line"/>
      <point x="302.482" y="341" type="line"/>
      <point x="153.364" y="698" type="line"/>
      <point x="176.364" y="698" type="line"/>
      <point x="315.733" y="361" type="line"/>
      <point x="600.364" y="698" type="line"/>
      <point x="623.364" y="698" type="line"/>
    </contour>
  </outline>
</glyph>
<glyph name="uni030B" format="1">
  <advance width="266"/>
  <outline>
    <contour>
      <point x="210" y="582" type="line"/>
      <point x="189" y="582" type="line"/>
      <point x="263" y="696" type="line"/>
      <point x="270" y="705"/>
      <point x="280" y="710"/>
      <point x="287" y="705" type="curve"/>
      <point x="295" y="701"/>
      <point x="294" y="690"/>
      <point x="286" y="682" type="curve"/>
    </contour>
    <contour>
      <point x="321" y="582" type="line"/>
      <point x="300" y="582" type="line"/>
      <point x="375" y="696" type="line"/>
      <point x="382" y="705"/>
      <point x="393" y="710"/>
      <point x="398" y="705" type="curve"/>
      <point x="407" y="701"/>
      <point x="405" y="690"/>
      <point x="398" y="682" type="curve"/>
    </contour>
  </outline>
</glyph>
<glyph name="uni030C" format="1">
  <advance width="266"/>
  <outline>
    <contour>
      <point x="404" y="706" type="line"/>
      <point x="256" y="587" type="line"/>
      <point x="161" y="705" type="line"/>
      <point x="180" y="721" type="line"/>
      <point x="263" y="617" type="line"/>
      <point x="393" y="721" type="line"/>
    </contour>
  </outline>
</glyph>
